<?xml version="1.0" encoding="UTF-8"?>
<svg xmlns="http://www.w3.org/2000/svg" xmlns:xlink="http://www.w3.org/1999/xlink" width="150px" height="150px" viewBox="0 0 150 150" version="1.1">
<defs>
<filter id="alpha" filterUnits="objectBoundingBox" x="0%" y="0%" width="100%" height="100%">
  <feColorMatrix type="matrix" in="SourceGraphic" values="0 0 0 0 1 0 0 0 0 1 0 0 0 0 1 0 0 0 1 0"/>
</filter>
<mask id="mask0">
  <g filter="url(#alpha)">
<rect x="0" y="0" width="150" height="150" style="fill:rgb(0%,0%,0%);fill-opacity:0.996078;stroke:none;"/>
  </g>
</mask>
<clipPath id="clip1">
  <rect x="0" y="0" width="150" height="150"/>
</clipPath>
<g id="surface5" clip-path="url(#clip1)">
<path style=" stroke:none;fill-rule:evenodd;fill:rgb(86.666667%,0%,19.215686%);fill-opacity:1;" d="M 74.9375 17.9375 C 74.976562 22.40625 74.9375 26.863281 74.8125 31.3125 C 63.28125 57.355469 51.699219 83.375 40.0625 109.375 C 44.394531 109.480469 48.730469 109.457031 53.0625 109.3125 C 55.402344 103.550781 57.734375 97.800781 60.0625 92.0625 C 65.019531 92.0625 69.980469 92.0625 74.9375 92.0625 C 74.9375 107.355469 74.9375 122.644531 74.9375 137.9375 C 59.144531 129.28125 43.371094 120.570312 27.625 111.8125 C 24.722656 87.320312 21.867188 62.820312 19.0625 38.3125 C 19.082031 38.144531 19.105469 37.980469 19.125 37.8125 C 37.699219 31.101562 56.300781 24.476562 74.9375 17.9375 Z M 74.9375 17.9375 "/>
</g>
</defs>
<g id="surface1">
<use xlink:href="#surface5" mask="url(#mask0)"/>
<path style=" stroke:none;fill-rule:evenodd;fill:rgb(76.470588%,0%,18.431373%);fill-opacity:1;" d="M 74.9375 17.9375 C 93.574219 24.476562 112.175781 31.101562 130.75 37.8125 C 130.769531 37.980469 130.792969 38.144531 130.8125 38.3125 C 128.007812 62.820312 125.152344 87.320312 122.25 111.8125 C 106.503906 120.570312 90.730469 129.28125 74.9375 137.9375 C 74.9375 122.644531 74.9375 107.355469 74.9375 92.0625 C 69.980469 92.0625 65.019531 92.0625 60.0625 92.0625 C 69.917969 91.917969 79.792969 91.894531 89.6875 92 C 92.03125 97.765625 94.367188 103.535156 96.6875 109.3125 C 101.019531 109.480469 105.355469 109.480469 109.6875 109.3125 C 98.132812 83.410156 86.613281 57.492188 75.125 31.5625 C 75.074219 31.40625 74.96875 31.320312 74.8125 31.3125 C 74.9375 26.863281 74.976562 22.40625 74.9375 17.9375 Z M 74.9375 17.9375 "/>
<path style=" stroke:none;fill-rule:evenodd;fill:rgb(99.607843%,99.607843%,99.607843%);fill-opacity:1;" d="M 74.8125 31.3125 C 74.96875 31.320312 75.074219 31.40625 75.125 31.5625 C 86.613281 57.492188 98.132812 83.410156 109.6875 109.3125 C 105.355469 109.480469 101.019531 109.480469 96.6875 109.3125 C 94.367188 103.535156 92.03125 97.765625 89.6875 92 C 79.792969 91.894531 69.917969 91.917969 60.0625 92.0625 C 57.734375 97.800781 55.402344 103.550781 53.0625 109.3125 C 48.730469 109.457031 44.394531 109.480469 40.0625 109.375 C 51.699219 83.375 63.28125 57.355469 74.8125 31.3125 Z M 74.8125 31.3125 "/>
<path style=" stroke:none;fill-rule:evenodd;fill:rgb(86.666667%,0.784314%,19.215686%);fill-opacity:1;" d="M 74.8125 56.9375 C 74.9375 65 74.980469 73.082031 74.9375 81.1875 C 71.5625 81.1875 68.1875 81.1875 64.8125 81.1875 C 68.078125 73.078125 71.410156 64.992188 74.8125 56.9375 Z M 74.8125 56.9375 "/>
<path style=" stroke:none;fill-rule:evenodd;fill:rgb(76.470588%,0.784314%,18.431373%);fill-opacity:1;" d="M 74.8125 56.9375 C 74.820312 56.871094 74.863281 56.828125 74.9375 56.8125 C 78.417969 64.894531 81.792969 73.019531 85.0625 81.1875 C 81.6875 81.1875 78.3125 81.1875 74.9375 81.1875 C 74.980469 73.082031 74.9375 65 74.8125 56.9375 Z M 74.8125 56.9375 "/>
</g>
</svg>
