<?xml version="1.0" encoding="UTF-8"?>
<svg xmlns="http://www.w3.org/2000/svg" xmlns:xlink="http://www.w3.org/1999/xlink" width="150px" height="150px" viewBox="0 0 150 150" version="1.1">
<g id="surface1">
<path style=" stroke:none;fill-rule:evenodd;fill:rgb(99.607843%,99.607843%,99.607843%);fill-opacity:1;" d="M -0.0742188 -0.0742188 C 14.332031 -0.0742188 28.734375 -0.0742188 43.140625 -0.0742188 C 43.140625 6.714844 43.140625 13.5 43.140625 20.289062 C 48.707031 20.289062 54.273438 20.289062 59.839844 20.289062 C 59.984375 18.066406 60.035156 15.820312 59.984375 13.550781 C 56.8125 13.550781 53.636719 13.550781 50.464844 13.550781 C 50.464844 11.351562 50.464844 9.15625 50.464844 6.957031 C 53.636719 6.957031 56.8125 6.957031 59.984375 6.957031 C 59.984375 4.613281 59.984375 2.269531 59.984375 -0.0742188 C 62.183594 -0.0742188 64.378906 -0.0742188 66.578125 -0.0742188 C 66.550781 1.78125 66.578125 3.636719 66.648438 5.492188 C 68.519531 8.113281 70.351562 10.75 72.144531 13.402344 C 70.433594 13.5 68.726562 13.597656 67.015625 13.695312 C 67.015625 15.894531 67.015625 18.089844 67.015625 20.289062 C 72.4375 20.289062 77.855469 20.289062 83.277344 20.289062 C 83.324219 18.164062 83.277344 16.0625 83.128906 13.988281 C 81.46875 11.792969 79.808594 9.59375 78.148438 7.398438 C 79.832031 7.25 81.542969 7.203125 83.277344 7.25 C 83.277344 4.808594 83.277344 2.367188 83.277344 -0.0742188 C 85.425781 -0.0742188 87.574219 -0.0742188 89.722656 -0.0742188 C 89.722656 -0.0234375 89.722656 0.0234375 89.722656 0.0742188 C 89.695312 1.929688 89.722656 3.785156 89.796875 5.640625 C 91.613281 8.15625 93.398438 10.695312 95.140625 13.257812 C 93.511719 13.5 91.851562 13.644531 90.160156 13.695312 C 90.015625 15.867188 89.964844 18.066406 90.015625 20.289062 C 95.433594 20.289062 100.855469 20.289062 106.273438 20.289062 C 106.324219 18.113281 106.273438 15.964844 106.128906 13.84375 C 104.410156 11.734375 102.75 9.585938 101.148438 7.398438 C 102.855469 7.300781 104.566406 7.203125 106.273438 7.105469 C 106.273438 4.710938 106.273438 2.320312 106.273438 -0.0742188 C 120.824219 -0.0742188 135.375 -0.0742188 149.925781 -0.0742188 C 149.925781 49.925781 149.925781 99.925781 149.925781 149.925781 C 125.121094 149.925781 100.316406 149.925781 75.511719 149.925781 C 89.933594 145.71875 104.359375 141.519531 118.796875 137.328125 C 122.027344 100.90625 125.222656 64.480469 128.394531 28.050781 C 92.75 28.050781 57.105469 28.050781 21.460938 28.050781 C 24.46875 64.527344 27.449219 101 30.394531 137.476562 C 45.21875 141.558594 60.015625 145.710938 74.78125 149.925781 C 49.828125 149.925781 24.878906 149.925781 -0.0742188 149.925781 C -0.0742188 99.925781 -0.0742188 49.925781 -0.0742188 -0.0742188 Z M -0.0742188 -0.0742188 "/>
<path style=" stroke:none;fill-rule:evenodd;fill:rgb(11.764706%,11.764706%,11.764706%);fill-opacity:1;" d="M 89.722656 0.0742188 C 89.722656 0.0234375 89.722656 -0.0234375 89.722656 -0.0742188 C 95.238281 -0.0742188 100.757812 -0.0742188 106.273438 -0.0742188 C 106.273438 2.320312 106.273438 4.710938 106.273438 7.105469 C 106.226562 7.105469 106.175781 7.105469 106.128906 7.105469 C 106.128906 4.761719 106.128906 2.417969 106.128906 0.0742188 C 100.660156 0.0742188 95.191406 0.0742188 89.722656 0.0742188 Z M 89.722656 0.0742188 "/>
<path style=" stroke:none;fill-rule:evenodd;fill:rgb(23.529412%,23.529412%,23.529412%);fill-opacity:1;" d="M 43.140625 -0.0742188 C 43.1875 -0.0742188 43.238281 -0.0742188 43.285156 -0.0742188 C 43.285156 6.664062 43.285156 13.402344 43.285156 20.140625 C 48.804688 20.140625 54.320312 20.140625 59.839844 20.140625 C 59.839844 20.191406 59.839844 20.238281 59.839844 20.289062 C 54.273438 20.289062 48.707031 20.289062 43.140625 20.289062 C 43.140625 13.5 43.140625 6.714844 43.140625 -0.0742188 Z M 43.140625 -0.0742188 "/>
<path style=" stroke:none;fill-rule:evenodd;fill:rgb(0%,0%,0%);fill-opacity:1;" d="M 43.285156 -0.0742188 C 48.804688 -0.0742188 54.320312 -0.0742188 59.839844 -0.0742188 C 59.839844 2.222656 59.839844 4.515625 59.839844 6.8125 C 56.664062 6.8125 53.492188 6.8125 50.316406 6.8125 C 50.316406 9.105469 50.316406 11.402344 50.316406 13.695312 C 53.492188 13.695312 56.664062 13.695312 59.839844 13.695312 C 59.839844 15.84375 59.839844 17.992188 59.839844 20.140625 C 54.320312 20.140625 48.804688 20.140625 43.285156 20.140625 C 43.285156 13.402344 43.285156 6.664062 43.285156 -0.0742188 Z M 43.285156 -0.0742188 "/>
<path style=" stroke:none;fill-rule:evenodd;fill:rgb(0.392157%,0.392157%,0.392157%);fill-opacity:1;" d="M 66.578125 -0.0742188 C 72.09375 -0.0742188 77.613281 -0.0742188 83.128906 -0.0742188 C 83.128906 2.320312 83.128906 4.710938 83.128906 7.105469 C 81.371094 7.082031 79.613281 7.105469 77.855469 7.179688 C 77.9375 7.28125 78.035156 7.355469 78.148438 7.398438 C 79.808594 9.59375 81.46875 11.792969 83.128906 13.988281 C 83.128906 16.039062 83.128906 18.089844 83.128906 20.140625 C 77.808594 20.140625 72.484375 20.140625 67.164062 20.140625 C 67.164062 17.992188 67.164062 15.84375 67.164062 13.695312 C 68.921875 13.71875 70.679688 13.695312 72.4375 13.625 C 72.355469 13.519531 72.257812 13.445312 72.144531 13.402344 C 70.351562 10.75 68.519531 8.113281 66.648438 5.492188 C 66.578125 3.636719 66.550781 1.78125 66.578125 -0.0742188 Z M 66.578125 -0.0742188 "/>
<path style=" stroke:none;fill-rule:evenodd;fill:rgb(0%,0%,0%);fill-opacity:1;" d="M 89.722656 0.0742188 C 95.191406 0.0742188 100.660156 0.0742188 106.128906 0.0742188 C 106.128906 2.417969 106.128906 4.761719 106.128906 7.105469 C 104.417969 7.054688 102.707031 7.105469 101 7.25 C 101.019531 7.339844 101.066406 7.390625 101.148438 7.398438 C 102.75 9.585938 104.410156 11.734375 106.128906 13.84375 C 106.128906 15.941406 106.128906 18.042969 106.128906 20.140625 C 100.804688 20.140625 95.484375 20.140625 90.160156 20.140625 C 90.160156 17.992188 90.160156 15.84375 90.160156 13.695312 C 91.921875 13.746094 93.679688 13.695312 95.433594 13.550781 C 95.382812 13.398438 95.285156 13.300781 95.140625 13.257812 C 93.398438 10.695312 91.613281 8.15625 89.796875 5.640625 C 89.722656 3.785156 89.695312 1.929688 89.722656 0.0742188 Z M 89.722656 0.0742188 "/>
<path style=" stroke:none;fill-rule:evenodd;fill:rgb(64.313725%,64.313725%,64.313725%);fill-opacity:1;" d="M 83.128906 -0.0742188 C 83.179688 -0.0742188 83.226562 -0.0742188 83.277344 -0.0742188 C 83.277344 2.367188 83.277344 4.808594 83.277344 7.25 C 81.542969 7.203125 79.832031 7.25 78.148438 7.398438 C 78.035156 7.355469 77.9375 7.28125 77.855469 7.179688 C 79.613281 7.105469 81.371094 7.082031 83.128906 7.105469 C 83.128906 4.710938 83.128906 2.320312 83.128906 -0.0742188 Z M 83.128906 -0.0742188 "/>
<path style=" stroke:none;fill-rule:evenodd;fill:rgb(76.470588%,76.470588%,76.470588%);fill-opacity:1;" d="M 106.128906 7.105469 C 106.175781 7.105469 106.226562 7.105469 106.273438 7.105469 C 104.566406 7.203125 102.855469 7.300781 101.148438 7.398438 C 101.066406 7.390625 101.019531 7.339844 101 7.25 C 102.707031 7.105469 104.417969 7.054688 106.128906 7.105469 Z M 106.128906 7.105469 "/>
<path style=" stroke:none;fill-rule:evenodd;fill:rgb(80.784314%,80.784314%,80.784314%);fill-opacity:1;" d="M 72.144531 13.402344 C 72.257812 13.445312 72.355469 13.519531 72.4375 13.625 C 70.679688 13.695312 68.921875 13.71875 67.164062 13.695312 C 67.113281 13.695312 67.066406 13.695312 67.015625 13.695312 C 68.726562 13.597656 70.433594 13.5 72.144531 13.402344 Z M 72.144531 13.402344 "/>
<path style=" stroke:none;fill-rule:evenodd;fill:rgb(69.019608%,69.019608%,69.019608%);fill-opacity:1;" d="M 59.839844 -0.0742188 C 59.886719 -0.0742188 59.9375 -0.0742188 59.984375 -0.0742188 C 59.984375 2.269531 59.984375 4.613281 59.984375 6.957031 C 56.8125 6.957031 53.636719 6.957031 50.464844 6.957031 C 50.464844 9.15625 50.464844 11.351562 50.464844 13.550781 C 53.636719 13.550781 56.8125 13.550781 59.984375 13.550781 C 60.035156 15.820312 59.984375 18.066406 59.839844 20.289062 C 59.839844 20.238281 59.839844 20.191406 59.839844 20.140625 C 59.839844 17.992188 59.839844 15.84375 59.839844 13.695312 C 56.664062 13.695312 53.492188 13.695312 50.316406 13.695312 C 50.316406 11.402344 50.316406 9.105469 50.316406 6.8125 C 53.492188 6.8125 56.664062 6.8125 59.839844 6.8125 C 59.839844 4.515625 59.839844 2.222656 59.839844 -0.0742188 Z M 59.839844 -0.0742188 "/>
<path style=" stroke:none;fill-rule:evenodd;fill:rgb(79.607843%,79.607843%,79.607843%);fill-opacity:1;" d="M 95.140625 13.257812 C 95.285156 13.300781 95.382812 13.398438 95.433594 13.550781 C 93.679688 13.695312 91.921875 13.746094 90.160156 13.695312 C 91.851562 13.644531 93.511719 13.5 95.140625 13.257812 Z M 95.140625 13.257812 "/>
<path style=" stroke:none;fill-rule:evenodd;fill:rgb(27.843137%,27.843137%,27.843137%);fill-opacity:1;" d="M 67.015625 13.695312 C 67.066406 13.695312 67.113281 13.695312 67.164062 13.695312 C 67.164062 15.84375 67.164062 17.992188 67.164062 20.140625 C 72.484375 20.140625 77.808594 20.140625 83.128906 20.140625 C 83.128906 18.089844 83.128906 16.039062 83.128906 13.988281 C 83.277344 16.0625 83.324219 18.164062 83.277344 20.289062 C 77.855469 20.289062 72.4375 20.289062 67.015625 20.289062 C 67.015625 18.089844 67.015625 15.894531 67.015625 13.695312 Z M 67.015625 13.695312 "/>
<path style=" stroke:none;fill-rule:evenodd;fill:rgb(27.058824%,27.058824%,27.058824%);fill-opacity:1;" d="M 90.160156 13.695312 C 90.160156 15.84375 90.160156 17.992188 90.160156 20.140625 C 95.484375 20.140625 100.804688 20.140625 106.128906 20.140625 C 106.128906 18.042969 106.128906 15.941406 106.128906 13.84375 C 106.273438 15.964844 106.324219 18.113281 106.273438 20.289062 C 100.855469 20.289062 95.433594 20.289062 90.015625 20.289062 C 89.964844 18.066406 90.015625 15.867188 90.160156 13.695312 Z M 90.160156 13.695312 "/>
<path style=" stroke:none;fill-rule:evenodd;fill:rgb(10.588235%,45.098039%,72.941176%);fill-opacity:1;" d="M 75.511719 149.925781 C 75.269531 149.925781 75.023438 149.925781 74.78125 149.925781 C 60.015625 145.710938 45.21875 141.558594 30.394531 137.476562 C 27.449219 101 24.46875 64.527344 21.460938 28.050781 C 57.105469 28.050781 92.75 28.050781 128.394531 28.050781 C 125.222656 64.480469 122.027344 100.90625 118.796875 137.328125 C 104.359375 141.519531 89.933594 145.71875 75.511719 149.925781 Z M 75.511719 149.925781 "/>
<path style=" stroke:none;fill-rule:evenodd;fill:rgb(11.372549%,53.333333%,78.039216%);fill-opacity:1;" d="M 75.21875 126.636719 C 84.160156 123.871094 93.09375 121.089844 102.027344 118.285156 C 103.34375 104.574219 104.566406 90.851562 105.6875 77.125 C 96.3125 77.027344 86.9375 76.929688 77.5625 76.832031 C 87.71875 72.679688 97.875 68.53125 108.03125 64.378906 C 108.179688 60.058594 108.226562 55.714844 108.179688 51.34375 C 97.21875 51.195312 86.230469 51.148438 75.21875 51.195312 C 75.21875 46.996094 75.21875 42.796875 75.21875 38.597656 C 89.867188 38.597656 104.515625 38.597656 119.164062 38.597656 C 116.496094 68.71875 113.882812 98.84375 111.328125 128.980469 C 99.3125 132.441406 87.277344 135.859375 75.21875 139.234375 C 75.21875 135.035156 75.21875 130.835938 75.21875 126.636719 Z M 75.21875 126.636719 "/>
<path style=" stroke:none;fill-rule:evenodd;fill:rgb(35.686275%,62.352941%,81.568627%);fill-opacity:1;" d="M 75.21875 51.195312 C 86.230469 51.148438 97.21875 51.195312 108.179688 51.34375 C 85.644531 51.292969 63.132812 51.34375 40.648438 51.488281 C 40.648438 51.636719 40.648438 51.78125 40.648438 51.929688 C 40.511719 51.722656 40.460938 51.476562 40.503906 51.195312 C 52.074219 51.195312 63.648438 51.195312 75.21875 51.195312 Z M 75.21875 51.195312 "/>
<path style=" stroke:none;fill-rule:evenodd;fill:rgb(95.294118%,97.254902%,98.431373%);fill-opacity:1;" d="M 40.648438 51.488281 C 63.132812 51.34375 85.644531 51.292969 108.179688 51.34375 C 108.226562 55.714844 108.179688 60.058594 108.03125 64.378906 C 108.03125 60.082031 108.03125 55.785156 108.03125 51.488281 C 85.570312 51.488281 63.109375 51.488281 40.648438 51.488281 Z M 40.648438 51.488281 "/>
<path style=" stroke:none;fill-rule:evenodd;fill:rgb(99.607843%,99.607843%,99.607843%);fill-opacity:1;" d="M 40.648438 51.488281 C 63.109375 51.488281 85.570312 51.488281 108.03125 51.488281 C 108.03125 55.785156 108.03125 60.082031 108.03125 64.378906 C 97.875 68.53125 87.71875 72.679688 77.5625 76.832031 C 77.378906 76.824219 77.234375 76.898438 77.125 77.050781 C 86.644531 77.125 96.167969 77.148438 105.6875 77.125 C 104.566406 90.851562 103.34375 104.574219 102.027344 118.285156 C 93.09375 121.089844 84.160156 123.871094 75.21875 126.636719 C 65.894531 124.097656 56.570312 121.535156 47.242188 118.945312 C 46.59375 112.195312 46.007812 105.433594 45.484375 98.65625 C 45.484375 98.460938 45.484375 98.265625 45.484375 98.070312 C 49.828125 98.070312 54.175781 98.070312 58.519531 98.070312 C 58.8125 99.816406 59.007812 101.574219 59.105469 103.34375 C 59.097656 104.109375 59.195312 104.84375 59.398438 105.542969 C 59.574219 106.390625 59.671875 107.269531 59.691406 108.179688 C 64.179688 109.277344 68.671875 110.375 73.167969 111.476562 C 73.808594 111.566406 74.445312 111.542969 75.074219 111.402344 C 79.890625 110.445312 84.726562 109.566406 89.574219 108.765625 C 90.136719 102.757812 90.722656 96.75 91.332031 90.746094 C 75.804688 90.746094 60.277344 90.746094 44.75 90.746094 C 44.34375 87.347656 43.855469 83.976562 43.285156 80.640625 C 43.304688 79.917969 43.207031 79.234375 42.992188 78.589844 C 42.96875 78.394531 43.015625 78.222656 43.140625 78.078125 C 53.476562 73.566406 63.828125 69.097656 74.195312 64.671875 C 74.308594 64.632812 74.40625 64.558594 74.488281 64.453125 C 63.792969 64.378906 53.101562 64.355469 42.40625 64.378906 C 42.328125 63.519531 42.179688 62.6875 41.96875 61.890625 C 41.96875 61.839844 41.96875 61.792969 41.96875 61.742188 C 41.941406 60.679688 41.796875 59.65625 41.527344 58.667969 C 41.332031 56.40625 41.039062 54.160156 40.648438 51.929688 C 40.648438 51.78125 40.648438 51.636719 40.648438 51.488281 Z M 40.648438 51.488281 "/>
<path style=" stroke:none;fill-rule:evenodd;fill:rgb(37.647059%,59.607843%,80%);fill-opacity:1;" d="M 41.527344 58.667969 C 41.796875 59.65625 41.941406 60.679688 41.96875 61.742188 C 41.714844 60.753906 41.566406 59.726562 41.527344 58.667969 Z M 41.527344 58.667969 "/>
<path style=" stroke:none;fill-rule:evenodd;fill:rgb(39.607843%,60.784314%,80.784314%);fill-opacity:1;" d="M 41.96875 61.890625 C 42.179688 62.6875 42.328125 63.519531 42.40625 64.378906 C 42.089844 63.597656 41.941406 62.769531 41.96875 61.890625 Z M 41.96875 61.890625 "/>
<path style=" stroke:none;fill-rule:evenodd;fill:rgb(68.235294%,80.392157%,90.196078%);fill-opacity:1;" d="M 42.40625 64.378906 C 53.101562 64.355469 63.792969 64.378906 74.488281 64.453125 C 74.40625 64.558594 74.308594 64.632812 74.195312 64.671875 C 63.597656 64.574219 53.003906 64.476562 42.40625 64.378906 Z M 42.40625 64.378906 "/>
<path style=" stroke:none;fill-rule:evenodd;fill:rgb(38.039216%,67.45098%,84.705882%);fill-opacity:1;" d="M 77.5625 76.832031 C 86.9375 76.929688 96.3125 77.027344 105.6875 77.125 C 96.167969 77.148438 86.644531 77.125 77.125 77.050781 C 77.234375 76.898438 77.378906 76.824219 77.5625 76.832031 Z M 77.5625 76.832031 "/>
<path style=" stroke:none;fill-rule:evenodd;fill:rgb(39.215686%,60.784314%,80.784314%);fill-opacity:1;" d="M 42.992188 78.589844 C 43.207031 79.234375 43.304688 79.917969 43.285156 80.640625 C 43.070312 79.992188 42.972656 79.308594 42.992188 78.589844 Z M 42.992188 78.589844 "/>
<path style=" stroke:none;fill-rule:evenodd;fill:rgb(11.764706%,53.333333%,78.039216%);fill-opacity:1;" d="M 44.75 90.746094 C 60.277344 90.746094 75.804688 90.746094 91.332031 90.746094 C 90.722656 96.75 90.136719 102.757812 89.574219 108.765625 C 84.726562 109.566406 79.890625 110.445312 75.074219 111.402344 C 75.21875 104.574219 75.269531 97.738281 75.21875 90.894531 C 65.039062 90.941406 54.882812 90.894531 44.75 90.746094 Z M 44.75 90.746094 "/>
<path style=" stroke:none;fill-rule:evenodd;fill:rgb(86.27451%,91.372549%,95.686275%);fill-opacity:1;" d="M 58.519531 98.070312 C 54.175781 98.070312 49.828125 98.070312 45.484375 98.070312 C 45.484375 98.265625 45.484375 98.460938 45.484375 98.65625 C 45.34375 98.449219 45.296875 98.207031 45.335938 97.925781 C 49.757812 97.875 54.152344 97.925781 58.519531 98.070312 Z M 58.519531 98.070312 "/>
<path style=" stroke:none;fill-rule:evenodd;fill:rgb(76.470588%,85.098039%,92.54902%);fill-opacity:1;" d="M 59.105469 103.34375 C 59.308594 104.042969 59.40625 104.777344 59.398438 105.542969 C 59.195312 104.84375 59.097656 104.109375 59.105469 103.34375 Z M 59.105469 103.34375 "/>
</g>
</svg>
