<?xml version="1.0" encoding="UTF-8"?>
<svg xmlns="http://www.w3.org/2000/svg" xmlns:xlink="http://www.w3.org/1999/xlink" width="150px" height="150px" viewBox="0 0 150 150" version="1.1">
<defs>
<filter id="alpha" filterUnits="objectBoundingBox" x="0%" y="0%" width="100%" height="100%">
  <feColorMatrix type="matrix" in="SourceGraphic" values="0 0 0 0 1 0 0 0 0 1 0 0 0 0 1 0 0 0 1 0"/>
</filter>
<mask id="mask0">
  <g filter="url(#alpha)">
<rect x="0" y="0" width="150" height="150" style="fill:rgb(0%,0%,0%);fill-opacity:0.992157;stroke:none;"/>
  </g>
</mask>
<clipPath id="clip1">
  <rect x="0" y="0" width="150" height="150"/>
</clipPath>
<g id="surface5" clip-path="url(#clip1)">
<path style=" stroke:none;fill-rule:evenodd;fill:rgb(0%,0%,0%);fill-opacity:1;" d="M 31.6875 -0.0390625 C 33.960938 -0.0390625 36.238281 -0.0390625 38.511719 -0.0390625 C 38.511719 2.1875 38.511719 4.414062 38.511719 6.636719 C 40.5625 6.636719 42.613281 6.636719 44.664062 6.636719 C 44.664062 4.414062 44.664062 2.1875 44.664062 -0.0390625 C 46.914062 -0.0390625 49.164062 -0.0390625 51.414062 -0.0390625 C 51.414062 6.710938 51.414062 13.460938 51.414062 20.210938 C 49.164062 20.210938 46.914062 20.210938 44.664062 20.210938 C 44.664062 17.960938 44.664062 15.710938 44.664062 13.460938 C 42.636719 13.460938 40.613281 13.460938 38.585938 13.460938 C 38.585938 15.710938 38.585938 17.960938 38.585938 20.210938 C 36.289062 20.210938 33.988281 20.210938 31.6875 20.210938 C 31.6875 13.460938 31.6875 6.710938 31.6875 -0.0390625 Z M 31.6875 -0.0390625 "/>
</g>
<mask id="mask1">
  <g filter="url(#alpha)">
<rect x="0" y="0" width="150" height="150" style="fill:rgb(0%,0%,0%);fill-opacity:0.988235;stroke:none;"/>
  </g>
</mask>
<clipPath id="clip2">
  <rect x="0" y="0" width="150" height="150"/>
</clipPath>
<g id="surface8" clip-path="url(#clip2)">
<path style=" stroke:none;fill-rule:evenodd;fill:rgb(0%,0%,0%);fill-opacity:1;" d="M 54.335938 -0.0390625 C 60.585938 -0.0390625 66.835938 -0.0390625 73.085938 -0.0390625 C 73.085938 2.210938 73.085938 4.460938 73.085938 6.710938 C 71.085938 6.710938 69.085938 6.710938 67.085938 6.710938 C 67.085938 11.210938 67.085938 15.710938 67.085938 20.210938 C 64.8125 20.210938 62.539062 20.210938 60.261719 20.210938 C 60.261719 15.710938 60.261719 11.210938 60.261719 6.710938 C 58.289062 6.710938 56.3125 6.710938 54.335938 6.710938 C 54.335938 4.460938 54.335938 2.210938 54.335938 -0.0390625 Z M 54.335938 -0.0390625 "/>
</g>
<mask id="mask2">
  <g filter="url(#alpha)">
<rect x="0" y="0" width="150" height="150" style="fill:rgb(0%,0%,0%);fill-opacity:0.988235;stroke:none;"/>
  </g>
</mask>
<clipPath id="clip3">
  <rect x="0" y="0" width="150" height="150"/>
</clipPath>
<g id="surface11" clip-path="url(#clip3)">
<path style=" stroke:none;fill-rule:evenodd;fill:rgb(0%,0%,0%);fill-opacity:1;" d="M 75.9375 -0.0390625 C 78.335938 -0.0390625 80.738281 -0.0390625 83.136719 -0.0390625 C 84.53125 2.292969 85.941406 4.621094 87.375 6.9375 C 88.828125 4.632812 90.238281 2.308594 91.613281 -0.0390625 C 94.011719 -0.0390625 96.414062 -0.0390625 98.8125 -0.0390625 C 98.8125 6.710938 98.8125 13.460938 98.8125 20.210938 C 96.539062 20.210938 94.261719 20.210938 91.988281 20.210938 C 92 16.9375 91.988281 13.664062 91.949219 10.386719 C 90.429688 12.75 88.894531 15.101562 87.335938 17.4375 C 85.738281 15.089844 84.175781 12.714844 82.648438 10.3125 C 82.613281 13.613281 82.601562 16.914062 82.613281 20.210938 C 80.386719 20.210938 78.164062 20.210938 75.9375 20.210938 C 75.9375 13.460938 75.9375 6.710938 75.9375 -0.0390625 Z M 75.9375 -0.0390625 "/>
</g>
<mask id="mask3">
  <g filter="url(#alpha)">
<rect x="0" y="0" width="150" height="150" style="fill:rgb(0%,0%,0%);fill-opacity:0.992157;stroke:none;"/>
  </g>
</mask>
<clipPath id="clip4">
  <rect x="0" y="0" width="150" height="150"/>
</clipPath>
<g id="surface14" clip-path="url(#clip4)">
<path style=" stroke:none;fill-rule:evenodd;fill:rgb(0%,0%,0%);fill-opacity:1;" d="M 102.113281 -0.0390625 C 104.363281 -0.0390625 106.613281 -0.0390625 108.863281 -0.0390625 C 108.863281 4.460938 108.863281 8.960938 108.863281 13.460938 C 112.0625 13.460938 115.261719 13.460938 118.460938 13.460938 C 118.460938 15.710938 118.460938 17.960938 118.460938 20.210938 C 113.011719 20.210938 107.5625 20.210938 102.113281 20.210938 C 102.113281 13.460938 102.113281 6.710938 102.113281 -0.0390625 Z M 102.113281 -0.0390625 "/>
</g>
</defs>
<g id="surface1">
<use xlink:href="#surface5" mask="url(#mask0)"/>
<use xlink:href="#surface8" mask="url(#mask1)"/>
<use xlink:href="#surface11" mask="url(#mask2)"/>
<use xlink:href="#surface14" mask="url(#mask3)"/>
<path style=" stroke:none;fill-rule:evenodd;fill:rgb(89.411765%,30.196078%,14.901961%);fill-opacity:1;" d="M 75.1875 149.960938 C 74.988281 149.960938 74.789062 149.960938 74.585938 149.960938 C 60.234375 145.957031 45.871094 141.957031 31.5 137.960938 C 28.222656 101.792969 24.988281 65.617188 21.789062 29.4375 C 57.238281 29.4375 92.6875 29.4375 128.136719 29.4375 C 124.925781 65.613281 121.699219 101.789062 118.460938 137.960938 C 104.019531 141.929688 89.59375 145.929688 75.1875 149.960938 Z M 75.1875 149.960938 "/>
<path style=" stroke:none;fill-rule:evenodd;fill:rgb(94.509804%,39.607843%,16.078431%);fill-opacity:1;" d="M 74.960938 127.011719 C 74.960938 126.988281 74.960938 126.960938 74.960938 126.9375 C 84.003906 124.414062 93.054688 121.890625 102.113281 119.363281 C 103.375 105.765625 104.597656 92.164062 105.789062 78.5625 C 95.488281 78.5625 85.1875 78.5625 74.886719 78.5625 C 69.050781 78.585938 63.226562 78.5625 57.414062 78.488281 C 63.261719 78.488281 69.113281 78.488281 74.960938 78.488281 C 74.960938 73.960938 74.960938 69.4375 74.960938 64.914062 C 85.664062 64.914062 96.363281 64.914062 107.0625 64.914062 C 107.398438 60.585938 107.773438 56.257812 108.1875 51.9375 C 108.257812 51.832031 108.285156 51.707031 108.261719 51.5625 C 97.164062 51.5625 86.0625 51.5625 74.960938 51.5625 C 74.960938 47.164062 74.960938 42.761719 74.960938 38.363281 C 89.4375 38.363281 103.914062 38.363281 118.386719 38.363281 C 115.628906 69.210938 112.867188 100.0625 110.101562 130.914062 C 98.394531 134.171875 86.695312 137.445312 75 140.738281 C 74.960938 136.164062 74.949219 131.585938 74.960938 127.011719 Z M 74.960938 127.011719 "/>
<path style=" stroke:none;fill-rule:evenodd;fill:rgb(94.117647%,56.470588%,42.745098%);fill-opacity:1;" d="M 41.585938 51.636719 C 52.699219 51.5625 63.824219 51.539062 74.960938 51.5625 C 86.0625 51.5625 97.164062 51.5625 108.261719 51.5625 C 108.285156 51.707031 108.257812 51.832031 108.1875 51.9375 C 108.1875 51.835938 108.1875 51.738281 108.1875 51.636719 C 97.085938 51.636719 85.988281 51.636719 74.886719 51.636719 C 63.789062 51.636719 52.6875 51.636719 41.585938 51.636719 Z M 41.585938 51.636719 "/>
<path style=" stroke:none;fill-rule:evenodd;fill:rgb(92.156863%,91.764706%,91.764706%);fill-opacity:1;" d="M 41.585938 51.636719 C 52.6875 51.636719 63.789062 51.636719 74.886719 51.636719 C 74.886719 56.0625 74.886719 60.488281 74.886719 64.914062 C 68.664062 64.914062 62.4375 64.914062 56.210938 64.914062 C 56.558594 69.453125 56.960938 73.976562 57.414062 78.488281 C 63.226562 78.5625 69.050781 78.585938 74.886719 78.5625 C 74.886719 82.988281 74.886719 87.414062 74.886719 91.835938 C 64.988281 91.835938 55.085938 91.835938 45.1875 91.835938 C 43.984375 78.4375 42.78125 65.039062 41.585938 51.636719 Z M 41.585938 51.636719 "/>
<path style=" stroke:none;fill-rule:evenodd;fill:rgb(99.607843%,99.607843%,99.607843%);fill-opacity:1;" d="M 74.886719 51.636719 C 85.988281 51.636719 97.085938 51.636719 108.1875 51.636719 C 108.1875 51.738281 108.1875 51.835938 108.1875 51.9375 C 107.773438 56.257812 107.398438 60.585938 107.0625 64.914062 C 96.363281 64.914062 85.664062 64.914062 74.960938 64.914062 C 74.9375 64.914062 74.914062 64.914062 74.886719 64.914062 C 74.886719 60.488281 74.886719 56.0625 74.886719 51.636719 Z M 74.886719 51.636719 "/>
<path style=" stroke:none;fill-rule:evenodd;fill:rgb(89.411765%,30.196078%,14.901961%);fill-opacity:1;" d="M 74.886719 64.914062 C 74.914062 64.914062 74.9375 64.914062 74.960938 64.914062 C 74.960938 69.4375 74.960938 73.960938 74.960938 78.488281 C 69.113281 78.488281 63.261719 78.488281 57.414062 78.488281 C 56.960938 73.976562 56.558594 69.453125 56.210938 64.914062 C 62.4375 64.914062 68.664062 64.914062 74.886719 64.914062 Z M 74.886719 64.914062 "/>
<path style=" stroke:none;fill-rule:evenodd;fill:rgb(99.607843%,99.607843%,99.607843%);fill-opacity:1;" d="M 74.886719 78.5625 C 85.1875 78.5625 95.488281 78.5625 105.789062 78.5625 C 104.597656 92.164062 103.375 105.765625 102.113281 119.363281 C 93.054688 121.890625 84.003906 124.414062 74.960938 126.9375 C 74.914062 124.648438 74.886719 122.351562 74.886719 120.039062 C 74.886719 117.695312 74.9375 115.371094 75.039062 113.0625 C 79.9375 111.753906 84.835938 110.453125 89.738281 109.164062 C 90.265625 103.398438 90.789062 97.632812 91.3125 91.875 C 85.863281 91.835938 80.414062 91.824219 74.960938 91.835938 C 74.9375 91.835938 74.914062 91.835938 74.886719 91.835938 C 74.886719 87.414062 74.886719 82.988281 74.886719 78.5625 Z M 74.886719 78.5625 "/>
<path style=" stroke:none;fill-rule:evenodd;fill:rgb(94.509804%,39.607843%,16.078431%);fill-opacity:1;" d="M 74.960938 91.835938 C 80.414062 91.824219 85.863281 91.835938 91.3125 91.875 C 90.789062 97.632812 90.265625 103.398438 89.738281 109.164062 C 84.835938 110.453125 79.9375 111.753906 75.039062 113.0625 C 75.011719 113.0625 74.988281 113.0625 74.960938 113.0625 C 74.960938 105.988281 74.960938 98.914062 74.960938 91.835938 Z M 74.960938 91.835938 "/>
<path style=" stroke:none;fill-rule:evenodd;fill:rgb(92.156863%,91.764706%,91.764706%);fill-opacity:1;" d="M 74.960938 113.0625 C 74.988281 113.0625 75.011719 113.0625 75.039062 113.0625 C 74.9375 115.371094 74.886719 117.695312 74.886719 120.039062 C 74.886719 122.351562 74.914062 124.648438 74.960938 126.9375 C 74.960938 126.960938 74.960938 126.988281 74.960938 127.011719 C 65.875 124.441406 56.773438 121.917969 47.664062 119.4375 C 47.058594 112.460938 46.433594 105.484375 45.789062 98.511719 C 50.238281 98.511719 54.6875 98.511719 59.136719 98.511719 C 59.453125 102.054688 59.78125 105.589844 60.113281 109.125 C 65.050781 110.484375 70 111.796875 74.960938 113.0625 Z M 74.960938 113.0625 "/>
</g>
</svg>
