<?xml version="1.0" encoding="UTF-8"?>
<!DOCTYPE svg PUBLIC "-//W3C//DTD SVG 1.1//EN" "http://www.w3.org/Graphics/SVG/1.1/DTD/svg11.dtd">
<svg xmlns="http://www.w3.org/2000/svg" version="1.1" width="512px" height="512px" style="shape-rendering:geometricPrecision; text-rendering:geometricPrecision; image-rendering:optimizeQuality; fill-rule:evenodd; clip-rule:evenodd" xmlns:xlink="http://www.w3.org/1999/xlink">
<g><path style="opacity:0.016" fill="#ff3200" d="M 300.5,27.5 C 299.475,27.1034 299.308,26.4368 300,25.5C 300.464,26.0944 300.631,26.7611 300.5,27.5 Z"/></g>
<g><path style="opacity:0.999" fill="#f85628" d="M 305.5,52.5 C 304.532,54.6074 304.198,56.9407 304.5,59.5C 303.566,60.5676 303.232,61.901 303.5,63.5C 302.566,64.5676 302.232,65.901 302.5,67.5C 301.167,68.1667 301.167,68.8333 302.5,69.5C 302.297,72.6155 301.297,74.6155 299.5,75.5C 298.167,76.1667 298.167,76.8333 299.5,77.5C 299.631,78.2389 299.464,78.9056 299,79.5C 298.346,78.3044 297.846,78.3044 297.5,79.5C 298.326,80.451 298.492,81.451 298,82.5C 297.08,82.9302 296.247,83.2635 295.5,83.5C 296.326,84.451 296.492,85.451 296,86.5C 293.64,91.2404 290.807,95.5737 287.5,99.5C 287.167,98.1667 286.833,98.1667 286.5,99.5C 285.167,99.8333 285.167,100.167 286.5,100.5C 286.672,101.492 286.338,102.158 285.5,102.5C 285.167,101.167 284.833,101.167 284.5,102.5C 283.167,102.833 283.167,103.167 284.5,103.5C 284.573,105.027 283.906,106.027 282.5,106.5C 282.167,105.167 281.833,105.167 281.5,106.5C 280.167,106.833 280.167,107.167 281.5,107.5C 281.672,108.492 281.338,109.158 280.5,109.5C 280.167,108.167 279.833,108.167 279.5,109.5C 278.833,109.5 278.5,109.833 278.5,110.5C 277.833,110.5 277.5,110.833 277.5,111.5C 276.167,111.833 276.167,112.167 277.5,112.5C 277.672,113.492 277.338,114.158 276.5,114.5C 276.167,113.167 275.833,113.167 275.5,114.5C 274.833,114.5 274.5,114.833 274.5,115.5C 273.833,115.5 273.5,115.833 273.5,116.5C 272.833,116.5 272.5,116.833 272.5,117.5C 271.167,117.833 271.167,118.167 272.5,118.5C 272.573,120.027 271.906,121.027 270.5,121.5C 270.167,120.167 269.833,120.167 269.5,121.5C 268.833,121.5 268.5,121.833 268.5,122.5C 267.833,122.5 267.5,122.833 267.5,123.5C 266.833,123.5 266.5,123.833 266.5,124.5C 265.833,124.5 265.5,124.833 265.5,125.5C 264.833,125.5 264.5,125.833 264.5,126.5C 263.833,126.5 263.5,126.833 263.5,127.5C 262.833,127.5 262.5,127.833 262.5,128.5C 261.833,128.5 261.5,128.833 261.5,129.5C 260.833,129.5 260.5,129.833 260.5,130.5C 259.833,130.5 259.5,130.833 259.5,131.5C 258.833,131.5 258.5,131.833 258.5,132.5C 257.833,132.5 257.5,132.833 257.5,133.5C 256.833,133.5 256.5,133.833 256.5,134.5C 255.167,134.833 255.167,135.167 256.5,135.5C 256.027,136.906 255.027,137.573 253.5,137.5C 253.167,136.167 252.833,136.167 252.5,137.5C 251.833,137.5 251.5,137.833 251.5,138.5C 250.833,138.5 250.5,138.833 250.5,139.5C 249.833,139.5 249.5,139.833 249.5,140.5C 248.167,140.833 248.167,141.167 249.5,141.5C 249.158,142.338 248.492,142.672 247.5,142.5C 247.167,141.167 246.833,141.167 246.5,142.5C 245.833,142.5 245.5,142.833 245.5,143.5C 244.833,143.5 244.5,143.833 244.5,144.5C 243.833,144.5 243.5,144.833 243.5,145.5C 242.508,145.328 241.842,145.662 241.5,146.5C 240.833,146.5 240.5,146.833 240.5,147.5C 239.833,147.5 239.5,147.833 239.5,148.5C 238.833,148.5 238.5,148.833 238.5,149.5C 237.833,149.5 237.5,149.833 237.5,150.5C 236.167,150.833 236.167,151.167 237.5,151.5C 236.455,152.878 235.122,153.878 233.5,154.5C 233.167,153.167 232.833,153.167 232.5,154.5C 231.833,154.5 231.5,154.833 231.5,155.5C 230.167,155.833 230.167,156.167 231.5,156.5C 230.876,158.754 229.543,160.421 227.5,161.5C 227.167,160.167 226.833,160.167 226.5,161.5C 225.833,161.5 225.5,161.833 225.5,162.5C 224.167,162.833 224.167,163.167 225.5,163.5C 225.573,165.027 224.906,166.027 223.5,166.5C 223.167,165.167 222.833,165.167 222.5,166.5C 221.167,166.833 221.167,167.167 222.5,167.5C 221.955,169.593 221.122,171.593 220,173.5C 219.333,174.833 218.667,174.833 218,173.5C 217.536,174.094 217.369,174.761 217.5,175.5C 216.167,176.167 216.167,176.833 217.5,177.5C 217.587,180.598 217.087,180.932 216,178.5C 214.872,180.345 214.372,182.345 214.5,184.5C 213.167,190.5 213.167,196.5 214.5,202.5C 214.232,204.099 214.566,205.432 215.5,206.5C 216.167,207.833 216.833,209.167 217.5,210.5C 216.167,211.167 216.167,211.833 217.5,212.5C 217.491,214.308 217.991,215.975 219,217.5C 219.333,216.833 219.667,216.167 220,215.5C 221.217,217.52 221.383,219.52 220.5,221.5C 221.333,223.167 222.167,224.833 223,226.5C 223.333,225.833 223.667,225.167 224,224.5C 226.034,227.706 227.867,231.04 229.5,234.5C 228.712,236.329 229.212,237.996 231,239.5C 231.333,239.167 231.667,238.833 232,238.5C 235,243.5 238,248.5 241,253.5C 242.689,257.185 243.856,260.851 244.5,264.5C 244.5,265.833 244.5,267.167 244.5,268.5C 243.167,268.5 241.833,268.5 240.5,268.5C 239.476,265.909 237.809,265.076 235.5,266C 233.741,262.177 230.908,258.677 227,255.5C 225.853,256.458 224.853,256.125 224,254.5C 222.832,250.244 220.165,246.577 216,243.5C 215.333,244.833 214.667,244.833 214,243.5C 213.073,238.909 210.406,235.909 206,234.5C 206.623,232.015 205.623,230.015 203,228.5C 201.334,229.34 201.167,228.84 202.5,227C 200.953,224.674 199.119,223.507 197,223.5C 196.365,222.034 195.531,220.7 194.5,219.5C 195.855,218.325 195.688,217.325 194,216.5C 193.667,216.833 193.333,217.167 193,217.5C 190.628,214.09 188.795,210.423 187.5,206.5C 188.833,205.833 188.833,205.167 187.5,204.5C 187.737,203.209 187.404,202.209 186.5,201.5C 186.167,197.5 185.833,197.5 185.5,201.5C 184.566,200.432 184.232,199.099 184.5,197.5C 185.482,194.038 185.815,190.371 185.5,186.5C 186.833,185.5 186.833,184.5 185.5,183.5C 186.931,175.383 190.598,169.216 196.5,165C 195.549,164.282 195.383,163.449 196,162.5C 197.281,162.619 198.448,162.119 199.5,161C 198.549,160.282 198.383,159.449 199,158.5C 199.667,157.167 200.333,157.167 201,158.5C 202.758,157.531 203.258,156.364 202.5,155C 205.15,153.4 207.816,151.067 210.5,148C 209.549,147.282 209.383,146.449 210,145.5C 213.487,144.084 216.654,141.584 219.5,138C 218.72,136.927 218.887,135.76 220,134.5C 225.496,131.048 230.662,126.548 235.5,121C 234.332,119.129 234.832,117.629 237,116.5C 237.333,116.833 237.667,117.167 238,117.5C 240.5,115 243,112.5 245.5,110C 244.332,108.129 244.832,106.629 247,105.5C 247.333,105.833 247.667,106.167 248,106.5C 249.833,104.667 251.667,102.833 253.5,101C 252.549,100.282 252.383,99.4491 253,98.5C 255.468,98.1309 257.635,96.6309 259.5,94C 258.549,93.2825 258.383,92.4491 259,91.5C 260.757,91.8671 262.257,91.0338 263.5,89C 262.549,88.2825 262.383,87.4491 263,86.5C 265.119,86.4928 266.953,85.3261 268.5,83C 267.549,82.2825 267.383,81.4491 268,80.5C 269.757,80.8671 271.257,80.0338 272.5,78C 271.167,76.1598 271.334,75.6598 273,76.5C 273.833,75.6667 274.667,74.8333 275.5,74C 274.549,73.2825 274.383,72.4491 275,71.5C 276.281,71.6192 277.448,71.1192 278.5,70C 277.167,68.1598 277.334,67.6598 279,68.5C 279.833,67.6667 280.667,66.8333 281.5,66C 280.167,64.1598 280.334,63.6598 282,64.5C 283.284,63.4281 283.617,62.0948 283,60.5C 285.248,57.672 287.248,54.672 289,51.5C 290.131,52.6039 290.965,52.2705 291.5,50.5C 291.167,49.8333 290.833,49.1667 290.5,48.5C 293.329,40.5336 296.662,33.5336 300.5,27.5C 301.792,25.7451 302.792,23.7451 303.5,21.5C 304.328,26.1315 304.828,30.7982 305,35.5C 305.333,31.1667 305.667,26.8333 306,22.5C 306.084,32.4941 305.917,42.4941 305.5,52.5 Z"/></g>
<g><path style="opacity:0.012" fill="#d33905" d="M 306.5,40.5 C 307.643,43.9758 307.81,47.6425 307,51.5C 306.501,47.8484 306.335,44.1817 306.5,40.5 Z"/></g>
<g><path style="opacity:0.024" fill="#f74d10" d="M 305.5,52.5 C 306.622,54.2884 306.789,56.2884 306,58.5C 305.505,56.5273 305.338,54.5273 305.5,52.5 Z"/></g>
<g><path style="opacity:0.024" fill="#ff2600" d="M 304.5,59.5 C 305.573,60.2506 305.74,61.2506 305,62.5C 304.517,61.552 304.351,60.552 304.5,59.5 Z"/></g>
<g><path style="opacity:0.016" fill="#ff3517" d="M 303.5,63.5 C 304.573,64.2506 304.74,65.2506 304,66.5C 303.517,65.552 303.351,64.552 303.5,63.5 Z"/></g>
<g><path style="opacity:0.016" fill="#ff1a00" d="M 302.5,67.5 C 303.833,68.1667 303.833,68.8333 302.5,69.5C 302.5,68.8333 302.5,68.1667 302.5,67.5 Z"/></g>
<g><path style="opacity:0.016" fill="#ff3200" d="M 299.5,75.5 C 300.833,76.1667 300.833,76.8333 299.5,77.5C 299.5,76.8333 299.5,76.1667 299.5,75.5 Z"/></g>
<g><path style="opacity:0.016" fill="#fe3f00" d="M 286.5,99.5 C 286.833,99.5 287.167,99.5 287.5,99.5C 287.315,100.17 286.981,100.17 286.5,99.5 Z"/></g>
<g><path style="opacity:0.016" fill="#fe3f00" d="M 284.5,102.5 C 284.833,102.5 285.167,102.5 285.5,102.5C 285.315,103.17 284.981,103.17 284.5,102.5 Z"/></g>
<g><path style="opacity:0.016" fill="#fe3f00" d="M 281.5,106.5 C 281.833,106.5 282.167,106.5 282.5,106.5C 282.315,107.17 281.981,107.17 281.5,106.5 Z"/></g>
<g><path style="opacity:0.016" fill="#be3f00" d="M 279.5,109.5 C 279.833,109.5 280.167,109.5 280.5,109.5C 280.315,110.17 279.981,110.17 279.5,109.5 Z"/></g>
<g><path style="opacity:0.02" fill="#cb3300" d="M 278.5,110.5 C 278.833,110.5 279.167,110.5 279.5,110.5C 279.315,111.17 278.981,111.17 278.5,110.5 Z"/></g>
<g><path style="opacity:0.02" fill="#cb3300" d="M 277.5,111.5 C 277.833,111.5 278.167,111.5 278.5,111.5C 278.315,112.17 277.981,112.17 277.5,111.5 Z"/></g>
<g><path style="opacity:0.012" fill="#fe5500" d="M 275.5,114.5 C 275.833,114.5 276.167,114.5 276.5,114.5C 276.315,115.17 275.981,115.17 275.5,114.5 Z"/></g>
<g><path style="opacity:0.016" fill="#ff4c00" d="M 332.5,115.5 C 333.601,114.402 334.934,114.235 336.5,115C 335.207,115.49 333.873,115.657 332.5,115.5 Z"/></g>
<g><path style="opacity:0.02" fill="#fe3300" d="M 274.5,115.5 C 274.833,115.5 275.167,115.5 275.5,115.5C 275.315,116.17 274.981,116.17 274.5,115.5 Z"/></g>
<g><path style="opacity:0.024" fill="#ff6023" d="M 331.5,116.5 C 330.448,116.649 329.448,116.483 328.5,116C 329.749,115.26 330.749,115.427 331.5,116.5 Z"/></g>
<g><path style="opacity:0.02" fill="#fe6632" d="M 273.5,116.5 C 273.833,116.5 274.167,116.5 274.5,116.5C 274.315,117.17 273.981,117.17 273.5,116.5 Z"/></g>
<g><path style="opacity:0.02" fill="#fe3300" d="M 272.5,117.5 C 272.833,117.5 273.167,117.5 273.5,117.5C 273.315,118.17 272.981,118.17 272.5,117.5 Z"/></g>
<g><path style="opacity:0.02" fill="#ff5700" d="M 320.5,119.5 C 319.761,119.631 319.094,119.464 318.5,119C 319.437,118.308 320.103,118.475 320.5,119.5 Z"/></g>
<g><path style="opacity:1" fill="#f85628" d="M 331.5,116.5 C 334.079,116.083 336.246,116.75 338,118.5C 338.333,118.167 338.667,117.833 339,117.5C 339.585,118.998 339.085,119.998 337.5,120.5C 337.167,119.167 336.833,119.167 336.5,120.5C 335.833,120.5 335.5,120.833 335.5,121.5C 334.833,121.5 334.5,121.833 334.5,122.5C 333.833,122.5 333.5,122.833 333.5,123.5C 332.833,123.5 332.5,123.833 332.5,124.5C 331.167,124.833 331.167,125.167 332.5,125.5C 332.158,126.338 331.492,126.672 330.5,126.5C 330.167,125.167 329.833,125.167 329.5,126.5C 328.833,126.5 328.5,126.833 328.5,127.5C 327.833,127.5 327.5,127.833 327.5,128.5C 326.508,128.328 325.842,128.662 325.5,129.5C 324.833,129.5 324.5,129.833 324.5,130.5C 323.833,130.5 323.5,130.833 323.5,131.5C 322.508,131.328 321.842,131.662 321.5,132.5C 320.833,132.5 320.5,132.833 320.5,133.5C 319.167,133.833 319.167,134.167 320.5,134.5C 320.158,135.338 319.492,135.672 318.5,135.5C 318.167,134.167 317.833,134.167 317.5,135.5C 316.833,135.5 316.5,135.833 316.5,136.5C 315.508,136.328 314.842,136.662 314.5,137.5C 313.833,137.5 313.5,137.833 313.5,138.5C 312.508,138.328 311.842,138.662 311.5,139.5C 310.833,139.5 310.5,139.833 310.5,140.5C 309.833,140.5 309.5,140.833 309.5,141.5C 308.508,141.328 307.842,141.662 307.5,142.5C 306.833,142.5 306.5,142.833 306.5,143.5C 305.167,143.833 305.167,144.167 306.5,144.5C 306.027,145.906 305.027,146.573 303.5,146.5C 303.167,145.167 302.833,145.167 302.5,146.5C 301.833,146.5 301.5,146.833 301.5,147.5C 300.167,147.833 300.167,148.167 301.5,148.5C 301.158,149.338 300.492,149.672 299.5,149.5C 299.167,148.167 298.833,148.167 298.5,149.5C 297.833,149.5 297.5,149.833 297.5,150.5C 296.833,150.5 296.5,150.833 296.5,151.5C 295.833,151.5 295.5,151.833 295.5,152.5C 294.833,152.5 294.5,152.833 294.5,153.5C 293.833,153.5 293.5,153.833 293.5,154.5C 292.833,154.5 292.5,154.833 292.5,155.5C 291.833,155.5 291.5,155.833 291.5,156.5C 290.833,156.5 290.5,156.833 290.5,157.5C 289.833,157.5 289.5,157.833 289.5,158.5C 288.833,158.5 288.5,158.833 288.5,159.5C 287.167,159.833 287.167,160.167 288.5,160.5C 288.068,161.71 287.401,162.71 286.5,163.5C 286.167,162.167 285.833,162.167 285.5,163.5C 284.167,163.833 284.167,164.167 285.5,164.5C 284.403,167.686 283.07,170.686 281.5,173.5C 281.167,172.167 280.833,172.167 280.5,173.5C 279.566,174.568 279.232,175.901 279.5,177.5C 278.167,181.833 278.167,186.167 279.5,190.5C 279.34,192.199 279.506,193.866 280,195.5C 280.333,194.5 280.667,193.5 281,192.5C 281.167,193.167 281.333,193.833 281.5,194.5C 280.037,196.946 280.204,199.28 282,201.5C 283.087,199.068 283.587,199.402 283.5,202.5C 282.167,203.167 282.167,203.833 283.5,204.5C 283.369,205.239 283.536,205.906 284,206.5C 284.654,205.304 285.154,205.304 285.5,206.5C 284.693,208.961 285.193,211.294 287,213.5C 287.333,212.833 287.667,212.167 288,211.5C 290.333,216.167 292.667,220.833 295,225.5C 294.869,230.317 295.703,234.984 297.5,239.5C 297.5,244.5 297.5,249.5 297.5,254.5C 296.549,255.919 296.216,257.585 296.5,259.5C 295.167,260.5 295.167,261.5 296.5,262.5C 296.206,265.754 294.873,268.421 292.5,270.5C 292.167,269.167 291.833,269.167 291.5,270.5C 290.167,270.833 290.167,271.167 291.5,271.5C 291.672,272.492 291.338,273.158 290.5,273.5C 290.167,272.167 289.833,272.167 289.5,273.5C 288.833,273.5 288.5,273.833 288.5,274.5C 287.833,274.5 287.5,274.833 287.5,275.5C 286.167,275.833 286.167,276.167 287.5,276.5C 287.158,277.338 286.492,277.672 285.5,277.5C 285.167,276.167 284.833,276.167 284.5,277.5C 283.508,277.328 282.842,277.662 282.5,278.5C 281.508,278.328 280.842,278.662 280.5,279.5C 272.185,281.838 268.518,278.838 269.5,270.5C 270.997,268.71 271.664,266.544 271.5,264C 271.363,261.102 270.863,258.269 270,255.5C 268.957,259.226 268.457,258.893 268.5,254.5C 269.833,253.5 269.833,252.5 268.5,251.5C 268.737,250.209 268.404,249.209 267.5,248.5C 267.167,245.833 266.833,245.833 266.5,248.5C 265.295,247.328 265.295,245.995 266.5,244.5C 265.667,242.833 264.833,241.167 264,239.5C 263.667,240.167 263.333,240.833 263,241.5C 261.604,238.936 260.437,236.269 259.5,233.5C 260.833,232.833 260.833,232.167 259.5,231.5C 259.167,230.167 258.833,230.167 258.5,231.5C 256.22,227.4 254.22,223.4 252.5,219.5C 253.833,218.833 253.833,218.167 252.5,217.5C 252.737,216.209 252.404,215.209 251.5,214.5C 251.167,210.5 250.833,210.5 250.5,214.5C 249.566,213.432 249.232,212.099 249.5,210.5C 250.833,209.5 250.833,208.5 249.5,207.5C 249.481,200.469 248.981,200.136 248,206.5C 247.505,204.527 247.338,202.527 247.5,200.5C 248.833,195.833 248.833,191.167 247.5,186.5C 247.598,182.036 248.431,177.703 250,173.5C 250.333,174.5 250.667,175.5 251,176.5C 251.402,175.128 251.902,173.795 252.5,172.5C 251.572,171.232 251.405,169.899 252,168.5C 253.586,166.33 254.92,163.996 256,161.5C 257.281,161.619 258.448,161.119 259.5,160C 258.167,158.16 258.334,157.66 260,158.5C 260.833,157.667 261.667,156.833 262.5,156C 261.549,155.282 261.383,154.449 262,153.5C 265.823,151.741 269.323,148.908 272.5,145C 271.167,144.333 271.167,143.667 272.5,143C 273.449,142.383 274.282,142.549 275,143.5C 276.758,142.531 277.258,141.364 276.5,140C 277.449,139.383 278.282,139.549 279,140.5C 284.307,136.438 289.807,132.771 295.5,129.5C 296.492,129.672 297.158,129.338 297.5,128.5C 300.691,127.908 303.691,126.741 306.5,125C 305.833,124.667 305.167,124.333 304.5,124C 310.19,124.001 315.523,122.501 320.5,119.5C 324.427,119.074 328.093,118.074 331.5,116.5 Z"/></g>
<g><path style="opacity:0.016" fill="#fe3f00" d="M 336.5,120.5 C 336.833,120.5 337.167,120.5 337.5,120.5C 337.315,121.17 336.981,121.17 336.5,120.5 Z"/></g>
<g><path style="opacity:0.008" fill="#fe0000" d="M 269.5,121.5 C 269.833,121.5 270.167,121.5 270.5,121.5C 270.315,122.17 269.981,122.17 269.5,121.5 Z"/></g>
<g><path style="opacity:0.016" fill="#fe3f00" d="M 335.5,121.5 C 335.833,121.5 336.167,121.5 336.5,121.5C 336.315,122.17 335.981,122.17 335.5,121.5 Z"/></g>
<g><path style="opacity:0.016" fill="#fe3f00" d="M 268.5,122.5 C 268.833,122.5 269.167,122.5 269.5,122.5C 269.315,123.17 268.981,123.17 268.5,122.5 Z"/></g>
<g><path style="opacity:0.024" fill="#fe2a00" d="M 334.5,122.5 C 334.833,122.5 335.167,122.5 335.5,122.5C 335.315,123.17 334.981,123.17 334.5,122.5 Z"/></g>
<g><path style="opacity:0.016" fill="#fe3f00" d="M 267.5,123.5 C 267.833,123.5 268.167,123.5 268.5,123.5C 268.315,124.17 267.981,124.17 267.5,123.5 Z"/></g>
<g><path style="opacity:0.016" fill="#fe3f00" d="M 333.5,123.5 C 333.833,123.5 334.167,123.5 334.5,123.5C 334.315,124.17 333.981,124.17 333.5,123.5 Z"/></g>
<g><path style="opacity:0.02" fill="#fe3300" d="M 266.5,124.5 C 266.833,124.5 267.167,124.5 267.5,124.5C 267.315,125.17 266.981,125.17 266.5,124.5 Z"/></g>
<g><path style="opacity:0.016" fill="#fe3f00" d="M 332.5,124.5 C 332.833,124.5 333.167,124.5 333.5,124.5C 333.315,125.17 332.981,125.17 332.5,124.5 Z"/></g>
<g><path style="opacity:0.02" fill="#fe3300" d="M 265.5,125.5 C 265.833,125.5 266.167,125.5 266.5,125.5C 266.315,126.17 265.981,126.17 265.5,125.5 Z"/></g>
<g><path style="opacity:0.02" fill="#fe3300" d="M 264.5,126.5 C 264.833,126.5 265.167,126.5 265.5,126.5C 265.315,127.17 264.981,127.17 264.5,126.5 Z"/></g>
<g><path style="opacity:0.016" fill="#fe3f00" d="M 329.5,126.5 C 329.833,126.5 330.167,126.5 330.5,126.5C 330.315,127.17 329.981,127.17 329.5,126.5 Z"/></g>
<g><path style="opacity:0.024" fill="#fe2a00" d="M 263.5,127.5 C 263.833,127.5 264.167,127.5 264.5,127.5C 264.315,128.17 263.981,128.17 263.5,127.5 Z"/></g>
<g><path style="opacity:0.024" fill="#fe5529" d="M 297.5,128.5 C 296.833,127.167 296.833,127.167 297.5,128.5 Z"/></g>
<g><path style="opacity:0.02" fill="#fe3300" d="M 328.5,127.5 C 328.833,127.5 329.167,127.5 329.5,127.5C 329.315,128.17 328.981,128.17 328.5,127.5 Z"/></g>
<g><path style="opacity:0.02" fill="#fe3300" d="M 262.5,128.5 C 262.833,128.5 263.167,128.5 263.5,128.5C 263.315,129.17 262.981,129.17 262.5,128.5 Z"/></g>
<g><path style="opacity:0.016" fill="#fe3f00" d="M 295.5,129.5 C 294.833,128.167 294.833,128.167 295.5,129.5 Z"/></g>
<g><path style="opacity:0.016" fill="#fe3f00" d="M 327.5,128.5 C 327.833,128.5 328.167,128.5 328.5,128.5C 328.315,129.17 327.981,129.17 327.5,128.5 Z"/></g>
<g><path style="opacity:0.024" fill="#fe2a00" d="M 261.5,129.5 C 261.833,129.5 262.167,129.5 262.5,129.5C 262.315,130.17 261.981,130.17 261.5,129.5 Z"/></g>
<g><path style="opacity:0.004" fill="#ff2100" d="M 325.5,130.5 C 325.5,130.167 325.5,129.833 325.5,129.5C 326.167,129.5 326.833,129.5 327.5,129.5C 327.158,130.338 326.492,130.672 325.5,130.5 Z"/></g>
<g><path style="opacity:0.02" fill="#fe3300" d="M 260.5,130.5 C 260.833,130.5 261.167,130.5 261.5,130.5C 261.315,131.17 260.981,131.17 260.5,130.5 Z"/></g>
<g><path style="opacity:0.02" fill="#fe3300" d="M 324.5,130.5 C 324.833,130.5 325.167,130.5 325.5,130.5C 325.315,131.17 324.981,131.17 324.5,130.5 Z"/></g>
<g><path style="opacity:0.024" fill="#fe5500" d="M 259.5,131.5 C 259.833,131.5 260.167,131.5 260.5,131.5C 260.315,132.17 259.981,132.17 259.5,131.5 Z"/></g>
<g><path style="opacity:0.012" fill="#fe5500" d="M 323.5,131.5 C 323.833,131.5 324.167,131.5 324.5,131.5C 324.315,132.17 323.981,132.17 323.5,131.5 Z"/></g>
<g><path style="opacity:0.016" fill="#fe3f00" d="M 258.5,132.5 C 258.833,132.5 259.167,132.5 259.5,132.5C 259.315,133.17 258.981,133.17 258.5,132.5 Z"/></g>
<g><path style="opacity:0.004" fill="#ff2100" d="M 321.5,133.5 C 321.5,133.167 321.5,132.833 321.5,132.5C 322.167,132.5 322.833,132.5 323.5,132.5C 323.158,133.338 322.492,133.672 321.5,133.5 Z"/></g>
<g><path style="opacity:0.016" fill="#fe3f00" d="M 257.5,133.5 C 257.833,133.5 258.167,133.5 258.5,133.5C 258.315,134.17 257.981,134.17 257.5,133.5 Z"/></g>
<g><path style="opacity:0.024" fill="#fe5500" d="M 320.5,133.5 C 320.833,133.5 321.167,133.5 321.5,133.5C 321.315,134.17 320.981,134.17 320.5,133.5 Z"/></g>
<g><path style="opacity:0.008" fill="#fe0000" d="M 256.5,134.5 C 256.833,134.5 257.167,134.5 257.5,134.5C 257.315,135.17 256.981,135.17 256.5,134.5 Z"/></g>
<g><path style="opacity:0.02" fill="#fe3300" d="M 317.5,135.5 C 317.833,135.5 318.167,135.5 318.5,135.5C 318.315,136.17 317.981,136.17 317.5,135.5 Z"/></g>
<g><path style="opacity:0.016" fill="#fe3f00" d="M 316.5,136.5 C 316.833,136.5 317.167,136.5 317.5,136.5C 317.315,137.17 316.981,137.17 316.5,136.5 Z"/></g>
<g><path style="opacity:0.024" fill="#d42a00" d="M 252.5,137.5 C 252.833,137.5 253.167,137.5 253.5,137.5C 253.315,138.17 252.981,138.17 252.5,137.5 Z"/></g>
<g><path style="opacity:0.004" fill="#ff2100" d="M 314.5,138.5 C 314.5,138.167 314.5,137.833 314.5,137.5C 315.167,137.5 315.833,137.5 316.5,137.5C 316.158,138.338 315.492,138.672 314.5,138.5 Z"/></g>
<g><path style="opacity:0.024" fill="#fe2a00" d="M 251.5,138.5 C 251.833,138.5 252.167,138.5 252.5,138.5C 252.315,139.17 251.981,139.17 251.5,138.5 Z"/></g>
<g><path style="opacity:0.02" fill="#fe3300" d="M 313.5,138.5 C 313.833,138.5 314.167,138.5 314.5,138.5C 314.315,139.17 313.981,139.17 313.5,138.5 Z"/></g>
<g><path style="opacity:0.02" fill="#fe3300" d="M 250.5,139.5 C 250.833,139.5 251.167,139.5 251.5,139.5C 251.315,140.17 250.981,140.17 250.5,139.5 Z"/></g>
<g><path style="opacity:0.012" fill="#ff2100" d="M 311.5,140.5 C 311.5,140.167 311.5,139.833 311.5,139.5C 312.167,139.5 312.833,139.5 313.5,139.5C 313.158,140.338 312.492,140.672 311.5,140.5 Z"/></g>
<g><path style="opacity:0.02" fill="#fe3300" d="M 249.5,140.5 C 249.833,140.5 250.167,140.5 250.5,140.5C 250.315,141.17 249.981,141.17 249.5,140.5 Z"/></g>
<g><path style="opacity:0.024" fill="#fe5500" d="M 310.5,140.5 C 310.833,140.5 311.167,140.5 311.5,140.5C 311.315,141.17 310.981,141.17 310.5,140.5 Z"/></g>
<g><path style="opacity:0.016" fill="#fe3f00" d="M 309.5,141.5 C 309.833,141.5 310.167,141.5 310.5,141.5C 310.315,142.17 309.981,142.17 309.5,141.5 Z"/></g>
<g><path style="opacity:0.016" fill="#be0000" d="M 246.5,142.5 C 246.833,142.5 247.167,142.5 247.5,142.5C 247.315,143.17 246.981,143.17 246.5,142.5 Z"/></g>
<g><path style="opacity:0.016" fill="#fe3f00" d="M 307.5,142.5 C 308.833,143.167 308.833,143.167 307.5,142.5 Z"/></g>
<g><path style="opacity:0.024" fill="#fe5500" d="M 245.5,143.5 C 245.833,143.5 246.167,143.5 246.5,143.5C 246.315,144.17 245.981,144.17 245.5,143.5 Z"/></g>
<g><path style="opacity:0.02" fill="#fe3300" d="M 306.5,143.5 C 306.833,143.5 307.167,143.5 307.5,143.5C 307.315,144.17 306.981,144.17 306.5,143.5 Z"/></g>
<g><path style="opacity:0.02" fill="#fe3300" d="M 244.5,144.5 C 244.833,144.5 245.167,144.5 245.5,144.5C 245.315,145.17 244.981,145.17 244.5,144.5 Z"/></g>
<g><path style="opacity:0.008" fill="#fe0000" d="M 243.5,145.5 C 243.833,145.5 244.167,145.5 244.5,145.5C 244.315,146.17 243.981,146.17 243.5,145.5 Z"/></g>
<g><path style="opacity:0.004" fill="#ff1a00" d="M 241.5,147.5 C 241.5,147.167 241.5,146.833 241.5,146.5C 242.167,146.5 242.833,146.5 243.5,146.5C 243.158,147.338 242.492,147.672 241.5,147.5 Z"/></g>
<g><path style="opacity:0.016" fill="#fe3f00" d="M 302.5,146.5 C 302.833,146.5 303.167,146.5 303.5,146.5C 303.315,147.17 302.981,147.17 302.5,146.5 Z"/></g>
<g><path style="opacity:0.02" fill="#fe3300" d="M 240.5,147.5 C 240.833,147.5 241.167,147.5 241.5,147.5C 241.315,148.17 240.981,148.17 240.5,147.5 Z"/></g>
<g><path style="opacity:0.02" fill="#cb3300" d="M 301.5,147.5 C 301.833,147.5 302.167,147.5 302.5,147.5C 302.315,148.17 301.981,148.17 301.5,147.5 Z"/></g>
<g><path style="opacity:0.02" fill="#fe3300" d="M 239.5,148.5 C 239.833,148.5 240.167,148.5 240.5,148.5C 240.315,149.17 239.981,149.17 239.5,148.5 Z"/></g>
<g><path style="opacity:0.024" fill="#fe2a00" d="M 238.5,149.5 C 238.833,149.5 239.167,149.5 239.5,149.5C 239.315,150.17 238.981,150.17 238.5,149.5 Z"/></g>
<g><path style="opacity:0.012" fill="#fe0000" d="M 298.5,149.5 C 298.833,149.5 299.167,149.5 299.5,149.5C 299.315,150.17 298.981,150.17 298.5,149.5 Z"/></g>
<g><path style="opacity:0.012" fill="#fe0000" d="M 237.5,150.5 C 237.833,150.5 238.167,150.5 238.5,150.5C 238.315,151.17 237.981,151.17 237.5,150.5 Z"/></g>
<g><path style="opacity:0.024" fill="#fe5500" d="M 297.5,150.5 C 297.833,150.5 298.167,150.5 298.5,150.5C 298.315,151.17 297.981,151.17 297.5,150.5 Z"/></g>
<g><path style="opacity:0.024" fill="#fe2a00" d="M 296.5,151.5 C 296.833,151.5 297.167,151.5 297.5,151.5C 297.315,152.17 296.981,152.17 296.5,151.5 Z"/></g>
<g><path style="opacity:0.024" fill="#fe2a00" d="M 295.5,152.5 C 295.833,152.5 296.167,152.5 296.5,152.5C 296.315,153.17 295.981,153.17 295.5,152.5 Z"/></g>
<g><path style="opacity:0.02" fill="#fe3300" d="M 294.5,153.5 C 294.833,153.5 295.167,153.5 295.5,153.5C 295.315,154.17 294.981,154.17 294.5,153.5 Z"/></g>
<g><path style="opacity:0.012" fill="#fe5500" d="M 232.5,154.5 C 232.833,154.5 233.167,154.5 233.5,154.5C 233.315,155.17 232.981,155.17 232.5,154.5 Z"/></g>
<g><path style="opacity:0.02" fill="#fe3300" d="M 293.5,154.5 C 293.833,154.5 294.167,154.5 294.5,154.5C 294.315,155.17 293.981,155.17 293.5,154.5 Z"/></g>
<g><path style="opacity:0.016" fill="#fe3f00" d="M 231.5,155.5 C 231.833,155.5 232.167,155.5 232.5,155.5C 232.315,156.17 231.981,156.17 231.5,155.5 Z"/></g>
<g><path style="opacity:0.02" fill="#cb3300" d="M 292.5,155.5 C 292.833,155.5 293.167,155.5 293.5,155.5C 293.315,156.17 292.981,156.17 292.5,155.5 Z"/></g>
<g><path style="opacity:0.016" fill="#fe3f00" d="M 291.5,156.5 C 291.833,156.5 292.167,156.5 292.5,156.5C 292.315,157.17 291.981,157.17 291.5,156.5 Z"/></g>
<g><path style="opacity:0.016" fill="#fe3f00" d="M 290.5,157.5 C 290.833,157.5 291.167,157.5 291.5,157.5C 291.315,158.17 290.981,158.17 290.5,157.5 Z"/></g>
<g><path style="opacity:0.02" fill="#fe6600" d="M 289.5,158.5 C 289.833,158.5 290.167,158.5 290.5,158.5C 290.315,159.17 289.981,159.17 289.5,158.5 Z"/></g>
<g><path style="opacity:0.024" fill="#fe5500" d="M 288.5,159.5 C 288.833,159.5 289.167,159.5 289.5,159.5C 289.315,160.17 288.981,160.17 288.5,159.5 Z"/></g>
<g><path style="opacity:0.012" fill="#fe0000" d="M 226.5,161.5 C 226.833,161.5 227.167,161.5 227.5,161.5C 227.315,162.17 226.981,162.17 226.5,161.5 Z"/></g>
<g><path style="opacity:0.024" fill="#d45500" d="M 225.5,162.5 C 225.833,162.5 226.167,162.5 226.5,162.5C 226.315,163.17 225.981,163.17 225.5,162.5 Z"/></g>
<g><path style="opacity:0.02" fill="#cb3300" d="M 285.5,163.5 C 285.833,163.5 286.167,163.5 286.5,163.5C 286.315,164.17 285.981,164.17 285.5,163.5 Z"/></g>
<g><path style="opacity:0.016" fill="#fe3f00" d="M 222.5,166.5 C 222.833,166.5 223.167,166.5 223.5,166.5C 223.315,167.17 222.981,167.17 222.5,166.5 Z"/></g>
<g><path style="opacity:0.016" fill="#ff3200" d="M 280.5,173.5 C 280.833,173.5 281.167,173.5 281.5,173.5C 281.167,177.5 280.833,177.5 280.5,173.5 Z"/></g>
<g><path style="opacity:0.016" fill="#ff4600" d="M 217.5,175.5 C 218.833,176.167 218.833,176.833 217.5,177.5C 217.5,176.833 217.5,176.167 217.5,175.5 Z"/></g>
<g><path style="opacity:0.016" fill="#ff3000" d="M 215.5,184.5 C 215.351,183.448 215.517,182.448 216,181.5C 216.74,182.749 216.573,183.749 215.5,184.5 Z"/></g>
<g><path style="opacity:0.016" fill="#fd3c06" d="M 279.5,177.5 C 280.833,181.833 280.833,186.167 279.5,190.5C 279.5,186.167 279.5,181.833 279.5,177.5 Z"/></g>
<g><path style="opacity:0.027" fill="#ff3b15" d="M 185.5,183.5 C 185.5,184.5 185.5,185.5 185.5,186.5C 184.167,185.5 184.167,184.5 185.5,183.5 Z"/></g>
<g><path style="opacity:0.006" fill="#ff2900" d="M 214.5,184.5 C 214.833,184.5 215.167,184.5 215.5,184.5C 215.823,190.69 215.49,196.69 214.5,202.5C 214.5,196.5 214.5,190.5 214.5,184.5 Z"/></g>
<g><path style="opacity:0.016" fill="#ee3900" d="M 184.5,197.5 C 183.359,194.36 183.192,191.027 184,187.5C 184.498,190.817 184.665,194.15 184.5,197.5 Z"/></g>
<g><path style="opacity:0.027" fill="#ff3c14" d="M 247.5,186.5 C 247.5,191.167 247.5,195.833 247.5,200.5C 246.167,195.833 246.167,191.167 247.5,186.5 Z"/></g>
<g><path style="opacity:0.016" fill="#ff2a00" d="M 185.5,201.5 C 185.833,201.5 186.167,201.5 186.5,201.5C 186.5,202.5 186.5,203.5 186.5,204.5C 185.596,203.791 185.263,202.791 185.5,201.5 Z"/></g>
<g><path style="opacity:0.012" fill="#ff4e00" d="M 283.5,202.5 C 284.833,203.167 284.833,203.833 283.5,204.5C 283.5,203.833 283.5,203.167 283.5,202.5 Z"/></g>
<g><path style="opacity:0.024" fill="#ff4218" d="M 215.5,206.5 C 215.351,205.448 215.517,204.448 216,203.5C 216.74,204.749 216.573,205.749 215.5,206.5 Z"/></g>
<g><path style="opacity:0.016" fill="#e93f00" d="M 186.5,204.5 C 186.833,204.5 187.167,204.5 187.5,204.5C 187.5,205.167 187.5,205.833 187.5,206.5C 186.662,206.158 186.328,205.492 186.5,204.5 Z"/></g>
<g><path style="opacity:0.027" fill="#dd3d14" d="M 249.5,207.5 C 249.5,208.5 249.5,209.5 249.5,210.5C 248.167,209.5 248.167,208.5 249.5,207.5 Z"/></g>
<g><path style="opacity:0.02" fill="#ff4000" d="M 217.5,210.5 C 218.833,211.167 218.833,211.833 217.5,212.5C 217.5,211.833 217.5,211.167 217.5,210.5 Z"/></g>
<g><path style="opacity:0.02" fill="#fe3300" d="M 250.5,214.5 C 250.833,214.5 251.167,214.5 251.5,214.5C 251.167,217.167 250.833,217.167 250.5,214.5 Z"/></g>
<g><path style="opacity:0.012" fill="#ff4e00" d="M 252.5,217.5 C 252.5,218.167 252.5,218.833 252.5,219.5C 251.167,218.833 251.167,218.167 252.5,217.5 Z"/></g>
<g><path style="opacity:0.012" fill="#e10000" d="M 258.5,231.5 C 258.833,231.5 259.167,231.5 259.5,231.5C 259.5,232.167 259.5,232.833 259.5,233.5C 258.662,233.158 258.328,232.492 258.5,231.5 Z"/></g>
<g><path style="opacity:0.02" fill="#ff4500" d="M 297.5,239.5 C 297.34,237.801 297.506,236.134 298,234.5C 298.78,236.387 298.613,238.054 297.5,239.5 Z"/></g>
<g><path style="opacity:0.016" fill="#ff3f00" d="M 298.5,241.5 C 299.643,244.976 299.81,248.642 299,252.5C 298.501,248.848 298.335,245.182 298.5,241.5 Z"/></g>
<g><path style="opacity:0.016" fill="#fe3f00" d="M 266.5,248.5 C 266.833,248.5 267.167,248.5 267.5,248.5C 267.167,251.167 266.833,251.167 266.5,248.5 Z"/></g>
<g><path style="opacity:0.02" fill="#ff2200" d="M 268.5,251.5 C 268.5,252.5 268.5,253.5 268.5,254.5C 267.167,253.5 267.167,252.5 268.5,251.5 Z"/></g>
<g><path style="opacity:0.016" fill="#e42b04" d="M 297.5,254.5 C 298.833,256.167 298.833,257.833 297.5,259.5C 297.5,257.833 297.5,256.167 297.5,254.5 Z"/></g>
<g><path style="opacity:0.02" fill="#ff2f00" d="M 296.5,259.5 C 296.833,259.5 297.167,259.5 297.5,259.5C 297.737,260.791 297.404,261.791 296.5,262.5C 296.5,261.5 296.5,260.5 296.5,259.5 Z"/></g>
<g><path style="opacity:0.016" fill="#ff2a00" d="M 245.5,264.5 C 245.167,264.5 244.833,264.5 244.5,264.5C 244.833,260.5 245.167,260.5 245.5,264.5 Z"/></g>
<g><path style="opacity:0.016" fill="#ff3c0c" d="M 245.5,264.5 C 246.598,265.601 246.765,266.934 246,268.5C 245.51,267.207 245.343,265.873 245.5,264.5 Z"/></g>
<g><path style="opacity:0.004" fill="#0000e4" d="M 379.5,268.5 C 380.601,267.402 381.934,267.235 383.5,268C 382.207,268.49 380.873,268.657 379.5,268.5 Z"/></g>
<g><path style="opacity:0.012" fill="#fe5500" d="M 240.5,268.5 C 239.833,269.167 239.833,269.167 240.5,268.5 Z"/></g>
<g><path style="opacity:0.987" fill="#2e6bb8" d="M 173.5,277.5 C 173.167,276.167 172.833,276.167 172.5,277.5C 171.833,277.5 171.5,277.833 171.5,278.5C 170.833,278.5 170.5,278.833 170.5,279.5C 169.833,279.5 169.5,279.833 169.5,280.5C 168.833,280.5 168.5,280.833 168.5,281.5C 167.833,281.5 167.5,281.833 167.5,282.5C 166.833,282.5 166.5,282.833 166.5,283.5C 165.833,283.5 165.5,283.833 165.5,284.5C 164.833,284.5 164.5,284.833 164.5,285.5C 163.167,285.833 163.167,286.167 164.5,286.5C 164.027,287.906 163.027,288.573 161.5,288.5C 161.167,287.167 160.833,287.167 160.5,288.5C 159.833,288.5 159.5,288.833 159.5,289.5C 158.167,289.833 158.167,290.167 159.5,290.5C 159.443,291.609 159.11,292.609 158.5,293.5C 157.167,293.833 157.167,294.167 158.5,294.5C 180.64,294.27 202.974,294.604 225.5,295.5C 229.833,295.333 234.167,295.167 238.5,295C 230.833,294.667 223.167,294.333 215.5,294C 233.999,294.329 252.333,294.163 270.5,293.5C 288.526,293.954 306.526,294.121 324.5,294C 322.167,294.333 319.833,294.667 317.5,295C 320.854,295.455 324.187,295.955 327.5,296.5C 328.833,297.833 328.833,299.167 327.5,300.5C 326.508,300.328 325.842,300.662 325.5,301.5C 324.209,301.263 323.209,301.596 322.5,302.5C 318.5,302.833 318.5,303.167 322.5,303.5C 321.432,304.434 320.099,304.768 318.5,304.5C 317.5,303.167 316.5,303.167 315.5,304.5C 313.265,304.205 311.265,304.539 309.5,305.5C 307.265,305.205 305.265,305.539 303.5,306.5C 301.265,306.205 299.265,306.539 297.5,307.5C 294.287,307.19 291.287,307.523 288.5,308.5C 285.941,308.198 283.607,308.532 281.5,309.5C 278.15,309.335 274.817,309.502 271.5,310C 274.5,310.333 277.5,310.667 280.5,311C 277.183,311.498 273.85,311.665 270.5,311.5C 267.5,310.167 264.5,310.167 261.5,311.5C 257.154,311.334 252.821,311.501 248.5,312C 252.167,312.333 255.833,312.667 259.5,313C 255.514,313.499 251.514,313.666 247.5,313.5C 242.833,312.167 238.167,312.167 233.5,313.5C 226.978,313.177 220.645,313.51 214.5,314.5C 195.477,314.443 176.477,314.61 157.5,315C 159.833,314.667 162.167,314.333 164.5,314C 161.854,313.503 159.187,313.336 156.5,313.5C 152.761,311.898 148.761,310.898 144.5,310.5C 138.769,308.231 132.769,306.565 126.5,305.5C 125.791,304.596 124.791,304.263 123.5,304.5C 120.869,302.847 118.203,301.181 115.5,299.5C 115.5,298.833 115.167,298.5 114.5,298.5C 114.167,293.167 113.833,293.167 113.5,298.5C 112.387,297.054 112.22,295.387 113,293.5C 115.119,293.493 116.953,292.326 118.5,290C 117.66,288.334 118.16,288.167 120,289.5C 121.487,288.747 121.654,287.914 120.5,287C 122.684,287.608 124.684,286.941 126.5,285C 125.66,283.334 126.16,283.167 128,284.5C 130.087,283.206 132.254,282.039 134.5,281C 135.833,280.333 135.833,279.667 134.5,279C 136.11,277.505 137.776,277.339 139.5,278.5C 148.203,273.488 157.537,270.488 167.5,269.5C 170.688,269.656 173.521,269.99 176,270.5C 176.838,273.481 176.005,275.814 173.5,277.5 Z"/></g>
<g><path style="opacity:0.016" fill="#ff3500" d="M 241.5,270.5 C 242.251,269.427 243.251,269.26 244.5,270C 243.552,270.483 242.552,270.649 241.5,270.5 Z"/></g>
<g><path style="opacity:0.016" fill="#ff3200" d="M 269.5,270.5 C 269.167,270.5 268.833,270.5 268.5,270.5C 268.833,267.833 269.167,267.833 269.5,270.5 Z"/></g>
<g><path style="opacity:0.012" fill="#175ab5" d="M 368.5,270.5 C 367.761,270.631 367.094,270.464 366.5,270C 367.437,269.308 368.103,269.475 368.5,270.5 Z"/></g>
<g><path style="opacity:0.016" fill="#fe3f00" d="M 291.5,270.5 C 291.833,270.5 292.167,270.5 292.5,270.5C 292.315,271.17 291.981,271.17 291.5,270.5 Z"/></g>
<g><path style="opacity:0.99" fill="#2d6ab7" d="M 418.5,300.5 C 417.539,302.265 417.205,304.265 417.5,306.5C 416.265,308.017 416.265,309.684 417.5,311.5C 416.479,312.901 415.479,314.235 414.5,315.5C 414.167,314.167 413.833,314.167 413.5,315.5C 412.167,315.833 412.167,316.167 413.5,316.5C 413.573,318.027 412.906,319.027 411.5,319.5C 411.167,318.167 410.833,318.167 410.5,319.5C 409.833,319.5 409.5,319.833 409.5,320.5C 408.833,320.5 408.5,320.833 408.5,321.5C 407.167,321.833 407.167,322.167 408.5,322.5C 406.145,326.855 402.812,330.188 398.5,332.5C 398.167,331.167 397.833,331.167 397.5,332.5C 396.833,332.5 396.5,332.833 396.5,333.5C 395.833,333.5 395.5,333.833 395.5,334.5C 394.833,334.5 394.5,334.833 394.5,335.5C 393.833,335.5 393.5,335.833 393.5,336.5C 392.833,336.5 392.5,336.833 392.5,337.5C 391.833,337.5 391.5,337.833 391.5,338.5C 390.833,338.5 390.5,338.833 390.5,339.5C 389.508,339.328 388.842,339.662 388.5,340.5C 387.833,340.5 387.5,340.833 387.5,341.5C 386.833,341.5 386.5,341.833 386.5,342.5C 385.833,342.5 385.5,342.833 385.5,343.5C 384.167,343.833 384.167,344.167 385.5,344.5C 385.158,345.338 384.492,345.672 383.5,345.5C 383.167,344.167 382.833,344.167 382.5,345.5C 381.833,345.5 381.5,345.833 381.5,346.5C 380.167,346.833 380.167,347.167 381.5,347.5C 381.158,348.338 380.492,348.672 379.5,348.5C 379.167,347.167 378.833,347.167 378.5,348.5C 377.833,348.5 377.5,348.833 377.5,349.5C 376.508,349.328 375.842,349.662 375.5,350.5C 374.833,350.5 374.5,350.833 374.5,351.5C 373.508,351.328 372.842,351.662 372.5,352.5C 371.508,352.328 370.842,352.662 370.5,353.5C 369.167,353.833 369.167,354.167 370.5,354.5C 370.158,355.338 369.492,355.672 368.5,355.5C 368.167,354.167 367.833,354.167 367.5,355.5C 366.209,355.263 365.209,355.596 364.5,356.5C 362.473,356.662 360.473,356.495 358.5,356C 357.62,354.644 357.286,353.144 357.5,351.5C 358.833,350.833 358.833,350.167 357.5,349.5C 358.072,347.745 358.906,346.078 360,344.5C 361.364,345.258 362.531,344.758 363.5,343C 362.549,342.282 362.383,341.449 363,340.5C 367.406,339.091 370.073,336.091 371,331.5C 373.119,331.493 374.953,330.326 376.5,328C 375.72,326.927 375.887,325.76 377,324.5C 377.914,325.654 378.747,325.487 379.5,324C 379.043,323.586 378.709,323.086 378.5,322.5C 381.171,319.163 383.337,315.496 385,311.5C 385.333,312.167 385.667,312.833 386,313.5C 387.868,310.395 389.035,307.062 389.5,303.5C 390.119,300.023 390.119,296.356 389.5,292.5C 390.833,291.167 390.833,289.833 389.5,288.5C 389.167,285.833 388.833,285.833 388.5,288.5C 387.556,283.037 384.056,279.37 378,277.5C 375.165,278.461 372.332,278.294 369.5,277C 370.5,276.667 371.5,276.333 372.5,276C 370.481,275.55 368.648,274.717 367,273.5C 366.761,272.212 367.261,271.212 368.5,270.5C 371.518,270.665 374.518,270.498 377.5,270C 374.833,269.667 372.167,269.333 369.5,269C 385.644,267.489 399.144,272.656 410,284.5C 410.667,283.167 411.333,283.167 412,284.5C 412.635,285.966 413.469,287.3 414.5,288.5C 413.339,290.224 413.505,291.89 415,293.5C 415.667,290.833 416.333,290.833 417,293.5C 417.977,295.74 418.477,298.073 418.5,300.5 Z"/></g>
<g><path style="opacity:0.004" fill="#ff1a00" d="M 268.5,270.5 C 268.657,271.873 268.49,273.207 268,274.5C 267.235,272.934 267.402,271.601 268.5,270.5 Z"/></g>
<g><path style="opacity:0.016" fill="#3832d4" d="M 364.5,271.5 C 365.525,271.897 365.692,272.563 365,273.5C 364.536,272.906 364.369,272.239 364.5,271.5 Z"/></g>
<g><path style="opacity:0.004" fill="#fe0000" d="M 289.5,273.5 C 289.833,273.5 290.167,273.5 290.5,273.5C 290.315,274.17 289.981,274.17 289.5,273.5 Z"/></g>
<g><path style="opacity:0.008" fill="#fe0000" d="M 288.5,274.5 C 288.833,274.5 289.167,274.5 289.5,274.5C 289.315,275.17 288.981,275.17 288.5,274.5 Z"/></g>
<g><path style="opacity:0.012" fill="#fe0000" d="M 267.5,275.5 C 268.525,275.897 268.692,276.563 268,277.5C 267.536,276.906 267.369,276.239 267.5,275.5 Z"/></g>
<g><path style="opacity:0.012" fill="#fe0000" d="M 287.5,275.5 C 287.833,275.5 288.167,275.5 288.5,275.5C 288.315,276.17 287.981,276.17 287.5,275.5 Z"/></g>
<g><path style="opacity:0.016" fill="#003ebf" d="M 172.5,277.5 C 172.833,277.5 173.167,277.5 173.5,277.5C 173.315,278.17 172.981,278.17 172.5,277.5 Z"/></g>
<g><path style="opacity:0.016" fill="#fe3f00" d="M 284.5,277.5 C 284.833,277.5 285.167,277.5 285.5,277.5C 285.315,278.17 284.981,278.17 284.5,277.5 Z"/></g>
<g><path style="opacity:0.02" fill="#006599" d="M 171.5,278.5 C 171.833,278.5 172.167,278.5 172.5,278.5C 172.315,279.17 171.981,279.17 171.5,278.5 Z"/></g>
<g><path style="opacity:0.012" fill="#fe5500" d="M 282.5,279.5 C 282.5,279.167 282.5,278.833 282.5,278.5C 283.167,278.5 283.833,278.5 284.5,278.5C 284.158,279.338 283.492,279.672 282.5,279.5 Z"/></g>
<g><path style="opacity:0.016" fill="#007ebf" d="M 170.5,279.5 C 170.833,279.5 171.167,279.5 171.5,279.5C 171.315,280.17 170.981,280.17 170.5,279.5 Z"/></g>
<g><path style="opacity:0.02" fill="#ff3700" d="M 280.5,280.5 C 280.5,280.167 280.5,279.833 280.5,279.5C 281.167,279.5 281.833,279.5 282.5,279.5C 282.158,280.338 281.492,280.672 280.5,280.5 Z"/></g>
<g><path style="opacity:0.012" fill="#005554" d="M 169.5,280.5 C 169.833,280.5 170.167,280.5 170.5,280.5C 170.315,281.17 169.981,281.17 169.5,280.5 Z"/></g>
<g><path style="opacity:0.027" fill="#fc4619" d="M 280.5,280.5 C 277.696,281.638 274.696,281.805 271.5,281C 274.482,280.502 277.482,280.335 280.5,280.5 Z"/></g>
<g><path style="opacity:0.02" fill="#0065cc" d="M 168.5,281.5 C 168.833,281.5 169.167,281.5 169.5,281.5C 169.315,282.17 168.981,282.17 168.5,281.5 Z"/></g>
<g><path style="opacity:0.012" fill="#0054ff" d="M 167.5,282.5 C 167.833,282.5 168.167,282.5 168.5,282.5C 168.315,283.17 167.981,283.17 167.5,282.5 Z"/></g>
<g><path style="opacity:0.024" fill="#0054aa" d="M 166.5,283.5 C 166.833,283.5 167.167,283.5 167.5,283.5C 167.315,284.17 166.981,284.17 166.5,283.5 Z"/></g>
<g><path style="opacity:0.024" fill="#0054aa" d="M 165.5,284.5 C 165.833,284.5 166.167,284.5 166.5,284.5C 166.315,285.17 165.981,285.17 165.5,284.5 Z"/></g>
<g><path style="opacity:0.016" fill="#003e7f" d="M 164.5,285.5 C 164.833,285.5 165.167,285.5 165.5,285.5C 165.315,286.17 164.981,286.17 164.5,285.5 Z"/></g>
<g><path style="opacity:0.024" fill="#0054aa" d="M 160.5,288.5 C 160.833,288.5 161.167,288.5 161.5,288.5C 161.315,289.17 160.981,289.17 160.5,288.5 Z"/></g>
<g><path style="opacity:0.027" fill="#006cb6" d="M 159.5,289.5 C 159.833,289.5 160.167,289.5 160.5,289.5C 160.315,290.17 159.981,290.17 159.5,289.5 Z"/></g>
<g><path style="opacity:0.02" fill="#283d99" d="M 388.5,288.5 C 388.833,288.5 389.167,288.5 389.5,288.5C 389.5,289.833 389.5,291.167 389.5,292.5C 388.566,291.432 388.232,290.099 388.5,288.5 Z"/></g>
<g><path style="opacity:0.024" fill="#2352a7" d="M 270.5,293.5 C 260.494,293.666 250.494,293.5 240.5,293C 250.675,292.175 260.675,292.342 270.5,293.5 Z"/></g>
<g><path style="opacity:0.016" fill="#2a6bbd" d="M 158.5,294.5 C 158.5,294.167 158.5,293.833 158.5,293.5C 163.833,293.833 163.833,294.167 158.5,294.5 Z"/></g>
<g><path style="opacity:0.012" fill="#0054aa" d="M 327.5,295.5 C 328.833,296.167 328.833,296.167 327.5,295.5 Z"/></g>
<g><path style="opacity:0.008" fill="#0669e9" d="M 329.5,297.5 C 330.525,297.897 330.692,298.563 330,299.5C 329.536,298.906 329.369,298.239 329.5,297.5 Z"/></g>
<g><path style="opacity:0.004" fill="#18154d" d="M 113.5,298.5 C 113.833,298.5 114.167,298.5 114.5,298.5C 115.167,298.5 115.5,298.833 115.5,299.5C 114.377,300.757 113.711,300.424 113.5,298.5 Z"/></g>
<g><path style="opacity:0.012" fill="#0054aa" d="M 327.5,300.5 C 328.833,301.167 328.833,301.167 327.5,300.5 Z"/></g>
<g><path style="opacity:0.02" fill="#124bc4" d="M 389.5,303.5 C 388.402,302.399 388.235,301.066 389,299.5C 389.49,300.793 389.657,302.127 389.5,303.5 Z"/></g>
<g><path style="opacity:0.008" fill="#152987" d="M 325.5,302.5 C 325.5,302.167 325.5,301.833 325.5,301.5C 326.167,301.5 326.833,301.5 327.5,301.5C 327.158,302.338 326.492,302.672 325.5,302.5 Z"/></g>
<g><path style="opacity:0.027" fill="#2742b9" d="M 322.5,303.5 C 322.5,303.167 322.5,302.833 322.5,302.5C 323.5,302.5 324.5,302.5 325.5,302.5C 324.791,303.404 323.791,303.737 322.5,303.5 Z"/></g>
<g><path style="opacity:0.016" fill="#17249e" d="M 418.5,300.5 C 419.833,302.5 419.833,304.5 418.5,306.5C 418.5,304.5 418.5,302.5 418.5,300.5 Z"/></g>
<g><path style="opacity:0.024" fill="#29639b" d="M 123.5,304.5 C 123.103,305.525 122.437,305.692 121.5,305C 122.094,304.536 122.761,304.369 123.5,304.5 Z"/></g>
<g><path style="opacity:0.024" fill="#215aca" d="M 315.5,304.5 C 316.5,304.5 317.5,304.5 318.5,304.5C 317.5,305.833 316.5,305.833 315.5,304.5 Z"/></g>
<g><path style="opacity:0.024" fill="#1f70c6" d="M 126.5,305.5 C 126.103,306.525 125.437,306.692 124.5,306C 125.094,305.536 125.761,305.369 126.5,305.5 Z"/></g>
<g><path style="opacity:0.012" fill="#2154c1" d="M 309.5,306.5 C 309.5,306.167 309.5,305.833 309.5,305.5C 316.167,305.833 316.167,306.167 309.5,306.5 Z"/></g>
<g><path style="opacity:0.024" fill="#2047b3" d="M 303.5,306.5 C 305.5,306.5 307.5,306.5 309.5,306.5C 307.5,307.833 305.5,307.833 303.5,306.5 Z"/></g>
<g><path style="opacity:0.016" fill="#2046b1" d="M 297.5,307.5 C 299.199,307.34 300.866,307.506 302.5,308C 300.613,308.78 298.946,308.613 297.5,307.5 Z"/></g>
<g><path style="opacity:0.024" fill="#1f429f" d="M 417.5,306.5 C 417.833,306.5 418.167,306.5 418.5,306.5C 418.167,310.5 417.833,310.5 417.5,306.5 Z"/></g>
<g><path style="opacity:0.016" fill="#1b6ab3" d="M 288.5,309.5 C 288.5,309.167 288.5,308.833 288.5,308.5C 299.167,308.833 299.167,309.167 288.5,309.5 Z"/></g>
<g><path style="opacity:0.024" fill="#215a9f" d="M 281.5,309.5 C 283.833,309.5 286.167,309.5 288.5,309.5C 286.167,310.833 283.833,310.833 281.5,309.5 Z"/></g>
<g><path style="opacity:0.02" fill="#2761c7" d="M 144.5,310.5 C 143.399,311.598 142.066,311.765 140.5,311C 141.793,310.51 143.127,310.343 144.5,310.5 Z"/></g>
<g><path style="opacity:0.027" fill="#265d9e" d="M 261.5,311.5 C 264.5,311.5 267.5,311.5 270.5,311.5C 267.5,312.833 264.5,312.833 261.5,311.5 Z"/></g>
<g><path style="opacity:0.012" fill="#1a57c2" d="M 156.5,313.5 C 155.399,314.598 154.066,314.765 152.5,314C 153.793,313.51 155.127,313.343 156.5,313.5 Z"/></g>
<g><path style="opacity:0.024" fill="#22449c" d="M 233.5,313.5 C 238.167,313.5 242.833,313.5 247.5,313.5C 242.833,314.833 238.167,314.833 233.5,313.5 Z"/></g>
<g><path style="opacity:0.027" fill="#295ec1" d="M 214.5,314.5 C 220.176,314.334 225.843,314.501 231.5,315C 225.651,315.818 219.985,315.652 214.5,314.5 Z"/></g>
<g><path style="opacity:0.016" fill="#2168b3" d="M 166.5,316.5 C 181.995,315.339 197.661,315.172 213.5,316C 197.837,316.5 182.17,316.667 166.5,316.5 Z"/></g>
<g><path style="opacity:0.012" fill="#0054aa" d="M 413.5,315.5 C 413.833,315.5 414.167,315.5 414.5,315.5C 414.315,316.17 413.981,316.17 413.5,315.5 Z"/></g>
<g><path style="opacity:0.02" fill="#003299" d="M 410.5,319.5 C 410.833,319.5 411.167,319.5 411.5,319.5C 411.315,320.17 410.981,320.17 410.5,319.5 Z"/></g>
<g><path style="opacity:0.02" fill="#3365cc" d="M 409.5,320.5 C 409.833,320.5 410.167,320.5 410.5,320.5C 410.315,321.17 409.981,321.17 409.5,320.5 Z"/></g>
<g><path style="opacity:0.016" fill="#003ebf" d="M 408.5,321.5 C 408.833,321.5 409.167,321.5 409.5,321.5C 409.315,322.17 408.981,322.17 408.5,321.5 Z"/></g>
<g><path style="opacity:0.991" fill="#2e6cb8" d="M 174.5,333.5 C 177.909,334.903 181.575,335.57 185.5,335.5C 188.625,336.479 191.958,336.813 195.5,336.5C 199.298,337.483 203.298,337.817 207.5,337.5C 240.664,338.332 273.997,338.832 307.5,339C 313.07,339.093 317.903,340.926 322,344.5C 322.333,344.167 322.667,343.833 323,343.5C 323.585,344.998 323.085,345.998 321.5,346.5C 321.167,345.167 320.833,345.167 320.5,346.5C 319.833,346.5 319.5,346.833 319.5,347.5C 318.833,347.5 318.5,347.833 318.5,348.5C 317.508,348.328 316.842,348.662 316.5,349.5C 315.833,349.5 315.5,349.833 315.5,350.5C 314.209,350.263 313.209,350.596 312.5,351.5C 311.508,351.328 310.842,351.662 310.5,352.5C 309.167,353.167 307.833,353.833 306.5,354.5C 305.5,353.167 304.5,353.167 303.5,354.5C 301.901,354.232 300.568,354.566 299.5,355.5C 297.585,355.216 295.919,355.549 294.5,356.5C 292.585,356.216 290.919,356.549 289.5,357.5C 287.265,357.205 285.265,357.539 283.5,358.5C 281.265,358.205 279.265,358.539 277.5,359.5C 274.813,359.336 272.146,359.503 269.5,360C 271.833,360.333 274.167,360.667 276.5,361C 273.854,361.497 271.187,361.664 268.5,361.5C 265.5,360.167 262.5,360.167 259.5,361.5C 255.486,361.334 251.486,361.501 247.5,362C 250.833,362.333 254.167,362.667 257.5,363C 253.848,363.499 250.182,363.665 246.5,363.5C 229.833,362.167 213.167,362.167 196.5,363.5C 193.813,363.664 191.146,363.497 188.5,363C 190.833,362.667 193.167,362.333 195.5,362C 191.187,361.265 186.853,360.765 182.5,360.5C 181.432,359.566 180.099,359.232 178.5,359.5C 172.354,356.84 166.521,353.507 161,349.5C 159.16,350.833 158.66,350.666 159.5,349C 157.311,346.056 154.811,344.223 152,343.5C 152.471,341.384 151.971,339.384 150.5,337.5C 150.055,334.635 150.722,332.135 152.5,330C 156.201,329.41 159.868,329.077 163.5,329C 162.833,329.333 162.167,329.667 161.5,330C 165.716,331.684 170.049,332.851 174.5,333.5 Z"/></g>
<g><path style="opacity:0.02" fill="#195a94" d="M 149.5,337.5 C 148.378,335.712 148.211,333.712 149,331.5C 149.495,333.473 149.662,335.473 149.5,337.5 Z"/></g>
<g><path style="opacity:0.024" fill="#2349a7" d="M 174.5,333.5 C 175.601,332.402 176.934,332.235 178.5,333C 177.207,333.49 175.873,333.657 174.5,333.5 Z"/></g>
<g><path style="opacity:0.012" fill="#0054aa" d="M 397.5,332.5 C 397.833,332.5 398.167,332.5 398.5,332.5C 398.315,333.17 397.981,333.17 397.5,332.5 Z"/></g>
<g><path style="opacity:0.024" fill="#2a54aa" d="M 396.5,333.5 C 396.833,333.5 397.167,333.5 397.5,333.5C 397.315,334.17 396.981,334.17 396.5,333.5 Z"/></g>
<g><path style="opacity:0.012" fill="#2056b5" d="M 185.5,335.5 C 188.304,334.362 191.304,334.195 194.5,335C 191.518,335.498 188.518,335.665 185.5,335.5 Z"/></g>
<g><path style="opacity:0.02" fill="#006599" d="M 395.5,334.5 C 395.833,334.5 396.167,334.5 396.5,334.5C 396.315,335.17 395.981,335.17 395.5,334.5 Z"/></g>
<g><path style="opacity:0.027" fill="#265fa8" d="M 195.5,336.5 C 198.976,335.357 202.642,335.19 206.5,336C 202.848,336.499 199.182,336.665 195.5,336.5 Z"/></g>
<g><path style="opacity:0.027" fill="#006cb6" d="M 394.5,335.5 C 394.833,335.5 395.167,335.5 395.5,335.5C 395.315,336.17 394.981,336.17 394.5,335.5 Z"/></g>
<g><path style="opacity:0.016" fill="#1564b4" d="M 207.5,337.5 C 240.331,336.336 273.331,336.169 306.5,337C 273.502,337.5 240.502,337.667 207.5,337.5 Z"/></g>
<g><path style="opacity:0.02" fill="#0032cc" d="M 393.5,336.5 C 393.833,336.5 394.167,336.5 394.5,336.5C 394.315,337.17 393.981,337.17 393.5,336.5 Z"/></g>
<g><path style="opacity:0.02" fill="#006599" d="M 392.5,337.5 C 392.833,337.5 393.167,337.5 393.5,337.5C 393.315,338.17 392.981,338.17 392.5,337.5 Z"/></g>
<g><path style="opacity:0.02" fill="#03609e" d="M 149.5,337.5 C 149.833,337.5 150.167,337.5 150.5,337.5C 150.167,340.167 149.833,340.167 149.5,337.5 Z"/></g>
<g><path style="opacity:0.016" fill="#003e7f" d="M 391.5,338.5 C 391.833,338.5 392.167,338.5 392.5,338.5C 392.315,339.17 391.981,339.17 391.5,338.5 Z"/></g>
<g><path style="opacity:0.008" fill="#00007f" d="M 390.5,339.5 C 390.833,339.5 391.167,339.5 391.5,339.5C 391.315,340.17 390.981,340.17 390.5,339.5 Z"/></g>
<g><path style="opacity:0.004" fill="#0820dc" d="M 388.5,341.5 C 388.5,341.167 388.5,340.833 388.5,340.5C 389.167,340.5 389.833,340.5 390.5,340.5C 390.158,341.338 389.492,341.672 388.5,341.5 Z"/></g>
<g><path style="opacity:0.02" fill="#003299" d="M 387.5,341.5 C 387.833,341.5 388.167,341.5 388.5,341.5C 388.315,342.17 387.981,342.17 387.5,341.5 Z"/></g>
<g><path style="opacity:0.02" fill="#006599" d="M 386.5,342.5 C 386.833,342.5 387.167,342.5 387.5,342.5C 387.315,343.17 386.981,343.17 386.5,342.5 Z"/></g>
<g><path style="opacity:0.016" fill="#007ebf" d="M 385.5,343.5 C 385.833,343.5 386.167,343.5 386.5,343.5C 386.315,344.17 385.981,344.17 385.5,343.5 Z"/></g>
<g><path style="opacity:0.016" fill="#007ebf" d="M 382.5,345.5 C 382.833,345.5 383.167,345.5 383.5,345.5C 383.315,346.17 382.981,346.17 382.5,345.5 Z"/></g>
<g><path style="opacity:0.008" fill="#007f7e" d="M 320.5,346.5 C 320.833,346.5 321.167,346.5 321.5,346.5C 321.315,347.17 320.981,347.17 320.5,346.5 Z"/></g>
<g><path style="opacity:0.02" fill="#0065cc" d="M 381.5,346.5 C 381.833,346.5 382.167,346.5 382.5,346.5C 382.315,347.17 381.981,347.17 381.5,346.5 Z"/></g>
<g><path style="opacity:0.012" fill="#0054aa" d="M 319.5,347.5 C 319.833,347.5 320.167,347.5 320.5,347.5C 320.315,348.17 319.981,348.17 319.5,347.5 Z"/></g>
<g><path style="opacity:0.016" fill="#003ebf" d="M 318.5,348.5 C 318.833,348.5 319.167,348.5 319.5,348.5C 319.315,349.17 318.981,349.17 318.5,348.5 Z"/></g>
<g><path style="opacity:0.02" fill="#0065cc" d="M 378.5,348.5 C 378.833,348.5 379.167,348.5 379.5,348.5C 379.315,349.17 378.981,349.17 378.5,348.5 Z"/></g>
<g><path style="opacity:0.012" fill="#15639b" d="M 316.5,350.5 C 316.5,350.167 316.5,349.833 316.5,349.5C 317.167,349.5 317.833,349.5 318.5,349.5C 318.158,350.338 317.492,350.672 316.5,350.5 Z"/></g>
<g><path style="opacity:0.016" fill="#003ebf" d="M 377.5,349.5 C 377.833,349.5 378.167,349.5 378.5,349.5C 378.315,350.17 377.981,350.17 377.5,349.5 Z"/></g>
<g><path style="opacity:0.024" fill="#2a54aa" d="M 315.5,350.5 C 315.833,350.5 316.167,350.5 316.5,350.5C 316.315,351.17 315.981,351.17 315.5,350.5 Z"/></g>
<g><path style="opacity:0.008" fill="#0924e9" d="M 357.5,349.5 C 357.5,350.167 357.5,350.833 357.5,351.5C 357.167,351.5 356.833,351.5 356.5,351.5C 356.328,350.508 356.662,349.842 357.5,349.5 Z"/></g>
<g><path style="opacity:0.004" fill="#132432" d="M 375.5,351.5 C 375.5,351.167 375.5,350.833 375.5,350.5C 376.167,350.5 376.833,350.5 377.5,350.5C 377.158,351.338 376.492,351.672 375.5,351.5 Z"/></g>
<g><path style="opacity:0.016" fill="#234cb2" d="M 312.5,352.5 C 312.5,352.167 312.5,351.833 312.5,351.5C 315.167,351.833 315.167,352.167 312.5,352.5 Z"/></g>
<g><path style="opacity:0.016" fill="#003ebf" d="M 374.5,351.5 C 374.833,351.5 375.167,351.5 375.5,351.5C 375.315,352.17 374.981,352.17 374.5,351.5 Z"/></g>
<g><path style="opacity:0.016" fill="#1b4cc3" d="M 310.5,352.5 C 311.167,352.5 311.833,352.5 312.5,352.5C 311.833,353.833 311.167,353.833 310.5,352.5 Z"/></g>
<g><path style="opacity:0.016" fill="#1e2e8d" d="M 356.5,351.5 C 356.657,352.873 356.49,354.207 356,355.5C 355.235,353.934 355.402,352.601 356.5,351.5 Z"/></g>
<g><path style="opacity:0.02" fill="#006599" d="M 372.5,352.5 C 373.833,353.167 373.833,353.167 372.5,352.5 Z"/></g>
<g><path style="opacity:0.012" fill="#0054aa" d="M 370.5,354.5 C 370.5,354.167 370.5,353.833 370.5,353.5C 371.167,353.5 371.833,353.5 372.5,353.5C 372.158,354.338 371.492,354.672 370.5,354.5 Z"/></g>
<g><path style="opacity:0.02" fill="#2258c0" d="M 303.5,354.5 C 304.5,354.5 305.5,354.5 306.5,354.5C 305.5,355.833 304.5,355.833 303.5,354.5 Z"/></g>
<g><path style="opacity:0.027" fill="#266bb5" d="M 299.5,356.5 C 299.5,356.167 299.5,355.833 299.5,355.5C 303.5,355.833 303.5,356.167 299.5,356.5 Z"/></g>
<g><path style="opacity:0.02" fill="#3365cc" d="M 367.5,355.5 C 367.833,355.5 368.167,355.5 368.5,355.5C 368.315,356.17 367.981,356.17 367.5,355.5 Z"/></g>
<g><path style="opacity:0.016" fill="#1549c6" d="M 294.5,357.5 C 294.5,357.167 294.5,356.833 294.5,356.5C 296.167,356.5 297.833,356.5 299.5,356.5C 298.081,357.451 296.415,357.784 294.5,357.5 Z"/></g>
<g><path style="opacity:0.016" fill="#136abf" d="M 364.5,357.5 C 364.5,357.167 364.5,356.833 364.5,356.5C 367.167,356.833 367.167,357.167 364.5,357.5 Z"/></g>
<g><path style="opacity:0.024" fill="#283f9e" d="M 289.5,358.5 C 289.5,358.167 289.5,357.833 289.5,357.5C 291.167,357.5 292.833,357.5 294.5,357.5C 293.081,358.451 291.415,358.784 289.5,358.5 Z"/></g>
<g><path style="opacity:0.024" fill="#2851de" d="M 364.5,357.5 C 362.712,358.622 360.712,358.789 358.5,358C 360.473,357.505 362.473,357.338 364.5,357.5 Z"/></g>
<g><path style="opacity:0.012" fill="#1d52c1" d="M 283.5,358.5 C 285.5,358.5 287.5,358.5 289.5,358.5C 287.5,359.833 285.5,359.833 283.5,358.5 Z"/></g>
<g><path style="opacity:0.024" fill="#2055c6" d="M 178.5,359.5 C 178.103,360.525 177.437,360.692 176.5,360C 177.094,359.536 177.761,359.369 178.5,359.5 Z"/></g>
<g><path style="opacity:0.02" fill="#2866c6" d="M 277.5,359.5 C 279.199,359.34 280.866,359.506 282.5,360C 280.613,360.78 278.946,360.613 277.5,359.5 Z"/></g>
<g><path style="opacity:0.016" fill="#2075b4" d="M 182.5,360.5 C 181.749,361.573 180.749,361.74 179.5,361C 180.448,360.517 181.448,360.351 182.5,360.5 Z"/></g>
<g><path style="opacity:0.012" fill="#2756ac" d="M 259.5,361.5 C 262.5,361.5 265.5,361.5 268.5,361.5C 265.5,362.833 262.5,362.833 259.5,361.5 Z"/></g>
<g><path style="opacity:0.012" fill="#125eba" d="M 196.5,363.5 C 213.167,363.5 229.833,363.5 246.5,363.5C 229.833,364.833 213.167,364.833 196.5,363.5 Z"/></g>
<g><path style="opacity:0.012" fill="#1d4eb2" d="M 190.5,381.5 C 203.994,380.339 217.66,380.173 231.5,381C 217.837,381.5 204.171,381.667 190.5,381.5 Z"/></g>
<g><path style="opacity:0.008" fill="#2d64bc" d="M 236.5,382.5 C 241.65,381.349 246.984,381.183 252.5,382C 247.177,382.499 241.844,382.666 236.5,382.5 Z"/></g>
<g><path style="opacity:0.993" fill="#2e6cb8" d="M 236.5,382.5 C 246.667,383.139 257,383.306 267.5,383C 263.167,383.333 258.833,383.667 254.5,384C 263.839,385.17 273.173,385.336 282.5,384.5C 284.167,384.667 285.833,384.833 287.5,385C 284.5,385.333 281.5,385.667 278.5,386C 285.985,387.323 293.318,387.823 300.5,387.5C 292.5,387.833 292.5,388.167 300.5,388.5C 303.983,390.156 307.65,390.656 311.5,390C 310.833,390.333 310.167,390.667 309.5,391C 310.745,391.791 312.078,392.291 313.5,392.5C 314.5,393.167 315.5,393.833 316.5,394.5C 315.596,395.209 315.263,396.209 315.5,397.5C 314.662,397.842 314.328,398.508 314.5,399.5C 313.833,399.5 313.5,399.833 313.5,400.5C 312.833,400.5 312.5,400.833 312.5,401.5C 311.833,401.5 311.5,401.833 311.5,402.5C 310.833,402.5 310.5,402.833 310.5,403.5C 309.508,403.328 308.842,403.662 308.5,404.5C 307.508,404.328 306.842,404.662 306.5,405.5C 305.508,405.328 304.842,405.662 304.5,406.5C 303.508,406.328 302.842,406.662 302.5,407.5C 301.209,407.263 300.209,407.596 299.5,408.5C 297.901,408.232 296.568,408.566 295.5,409.5C 293.901,409.232 292.568,409.566 291.5,410.5C 289.585,410.216 287.919,410.549 286.5,411.5C 284.585,411.216 282.919,411.549 281.5,412.5C 278.813,412.336 276.146,412.503 273.5,413C 275.833,413.333 278.167,413.667 280.5,414C 277.854,414.497 275.187,414.664 272.5,414.5C 269.5,413.167 266.5,413.167 263.5,414.5C 250.833,414.5 238.167,414.5 225.5,414.5C 222.375,413.521 219.042,413.187 215.5,413.5C 211.036,412.356 206.37,411.69 201.5,411.5C 196.053,409.723 190.386,408.39 184.5,407.5C 176.835,404.578 170.002,400.245 164,394.5C 163.667,394.833 163.333,395.167 163,395.5C 162.5,394.5 162,393.5 161.5,392.5C 162.145,391.268 162.311,389.935 162,388.5C 162.333,388.833 162.667,389.167 163,389.5C 166.737,385.918 171.237,384.085 176.5,384C 174.5,383.667 172.5,383.333 170.5,383C 192.459,382.733 214.459,382.566 236.5,382.5 Z"/></g>
<g><path style="opacity:0.027" fill="#275ba6" d="M 300.5,388.5 C 300.5,388.167 300.5,387.833 300.5,387.5C 305.833,387.833 305.833,388.167 300.5,388.5 Z"/></g>
<g><path style="opacity:0.016" fill="#003ebf" d="M 313.5,391.5 C 314.833,392.167 314.833,392.167 313.5,391.5 Z"/></g>
<g><path style="opacity:0.024" fill="#0f599c" d="M 316.5,394.5 C 317.833,395.5 317.833,396.5 316.5,397.5C 316.5,396.5 316.5,395.5 316.5,394.5 Z"/></g>
<g><path style="opacity:0.012" fill="#15639b" d="M 315.5,397.5 C 315.833,397.5 316.167,397.5 316.5,397.5C 316.672,398.492 316.338,399.158 315.5,399.5C 315.5,398.833 315.5,398.167 315.5,397.5 Z"/></g>
<g><path style="opacity:0.012" fill="#0054aa" d="M 314.5,399.5 C 314.833,399.5 315.167,399.5 315.5,399.5C 315.315,400.17 314.981,400.17 314.5,399.5 Z"/></g>
<g><path style="opacity:0.016" fill="#003e7f" d="M 313.5,400.5 C 313.833,400.5 314.167,400.5 314.5,400.5C 314.315,401.17 313.981,401.17 313.5,400.5 Z"/></g>
<g><path style="opacity:0.02" fill="#003299" d="M 312.5,401.5 C 312.833,401.5 313.167,401.5 313.5,401.5C 313.315,402.17 312.981,402.17 312.5,401.5 Z"/></g>
<g><path style="opacity:0.016" fill="#003ebf" d="M 311.5,402.5 C 311.833,402.5 312.167,402.5 312.5,402.5C 312.315,403.17 311.981,403.17 311.5,402.5 Z"/></g>
<g><path style="opacity:0.027" fill="#2664b5" d="M 125.5,404.5 C 128.304,403.362 131.304,403.195 134.5,404C 131.518,404.498 128.518,404.665 125.5,404.5 Z"/></g>
<g><path style="opacity:0.016" fill="#007ebf" d="M 310.5,403.5 C 310.833,403.5 311.167,403.5 311.5,403.5C 311.315,404.17 310.981,404.17 310.5,403.5 Z"/></g>
<g><path style="opacity:0.004" fill="#000000" d="M 135.5,404.5 C 136.833,405.167 136.833,405.167 135.5,404.5 Z"/></g>
<g><path style="opacity:0.004" fill="#1a36ee" d="M 308.5,405.5 C 308.5,405.167 308.5,404.833 308.5,404.5C 309.167,404.5 309.833,404.5 310.5,404.5C 310.158,405.338 309.492,405.672 308.5,405.5 Z"/></g>
<g><path style="opacity:0.016" fill="#2255aa" d="M 306.5,406.5 C 306.5,406.167 306.5,405.833 306.5,405.5C 307.167,405.5 307.833,405.5 308.5,405.5C 308.158,406.338 307.492,406.672 306.5,406.5 Z"/></g>
<g><path style="opacity:0.988" fill="#2d6bb8" d="M 135.5,405.5 C 136.167,406.167 136.833,406.833 137.5,407.5C 136.167,407.833 136.167,408.167 137.5,408.5C 137.25,410.674 136.25,412.341 134.5,413.5C 134.167,412.167 133.833,412.167 133.5,413.5C 132.833,413.5 132.5,413.833 132.5,414.5C 131.833,414.5 131.5,414.833 131.5,415.5C 130.167,415.833 130.167,416.167 131.5,416.5C 131.158,417.338 130.492,417.672 129.5,417.5C 129.167,416.167 128.833,416.167 128.5,417.5C 127.833,417.5 127.5,417.833 127.5,418.5C 126.833,418.5 126.5,418.833 126.5,419.5C 125.508,419.328 124.842,419.662 124.5,420.5C 123.833,420.5 123.5,420.833 123.5,421.5C 122.833,421.5 122.5,421.833 122.5,422.5C 121.508,422.328 120.842,422.662 120.5,423.5C 119.833,423.5 119.5,423.833 119.5,424.5C 118.833,424.5 118.5,424.833 118.5,425.5C 117.167,425.833 117.167,426.167 118.5,426.5C 118.489,428.017 117.823,429.184 116.5,430C 120.266,433.478 124.599,434.478 129.5,433C 128.167,433.333 126.833,433.667 125.5,434C 128.478,434.696 131.478,435.196 134.5,435.5C 136.607,436.468 138.941,436.802 141.5,436.5C 145.267,437.795 149.267,438.461 153.5,438.5C 157.809,439.484 162.309,440.151 167,440.5C 176.151,439.464 185.318,439.298 194.5,440C 187.167,440.333 179.833,440.667 172.5,441C 176.5,441.167 180.5,441.333 184.5,441.5C 204.332,440.239 224.165,440.239 244,441.5C 249.167,441.333 254.333,441.167 259.5,441C 250.167,440.667 240.833,440.333 231.5,440C 246.342,439.859 261.008,439.692 275.5,439.5C 280.179,439.666 284.845,439.499 289.5,439C 285.167,438.667 280.833,438.333 276.5,438C 302.581,438.658 328.247,436.158 353.5,430.5C 355.415,430.784 357.081,430.451 358.5,429.5C 363.601,428.857 368.601,427.691 373.5,426C 378.451,422.702 383.618,419.869 389,417.5C 390.537,418.114 391.87,418.114 393,417.5C 393.692,418.025 394.192,418.692 394.5,419.5C 393.167,421.5 393.167,423.5 394.5,425.5C 394.145,426.522 393.478,427.189 392.5,427.5C 392.167,426.167 391.833,426.167 391.5,427.5C 390.833,427.5 390.5,427.833 390.5,428.5C 389.833,428.5 389.5,428.833 389.5,429.5C 388.833,429.5 388.5,429.833 388.5,430.5C 387.833,430.5 387.5,430.833 387.5,431.5C 386.508,431.328 385.842,431.662 385.5,432.5C 384.833,432.5 384.5,432.833 384.5,433.5C 383.508,433.328 382.842,433.662 382.5,434.5C 381.508,434.328 380.842,434.662 380.5,435.5C 379.209,435.263 378.209,435.596 377.5,436.5C 376.508,436.328 375.842,436.662 375.5,437.5C 374.209,437.263 373.209,437.596 372.5,438.5C 371.508,438.328 370.842,438.662 370.5,439.5C 369.167,440.167 367.833,440.833 366.5,441.5C 365.833,440.167 365.167,440.167 364.5,441.5C 362.901,441.232 361.568,441.566 360.5,442.5C 358.901,442.232 357.568,442.566 356.5,443.5C 355.209,443.263 354.209,443.596 353.5,444.5C 351.585,444.216 349.919,444.549 348.5,445.5C 347.209,445.263 346.209,445.596 345.5,446.5C 339.792,446.492 339.459,446.992 344.5,448C 342.866,448.494 341.199,448.66 339.5,448.5C 338.167,447.167 336.833,447.167 335.5,448.5C 333.585,448.216 331.919,448.549 330.5,449.5C 328.265,449.205 326.265,449.539 324.5,450.5C 318.792,450.492 318.459,450.992 323.5,452C 317.552,453.255 311.552,454.088 305.5,454.5C 302.833,453.167 300.167,453.167 297.5,454.5C 294.941,454.198 292.607,454.532 290.5,455.5C 287.482,455.335 284.482,455.502 281.5,456C 284.167,456.333 286.833,456.667 289.5,457C 286.518,457.498 283.518,457.665 280.5,457.5C 277.167,456.167 273.833,456.167 270.5,457.5C 266.486,457.334 262.486,457.501 258.5,458C 261.833,458.333 265.167,458.667 268.5,459C 261.684,459.741 254.851,460.241 248,460.5C 227.843,459.624 207.677,459.291 187.5,459.5C 182.5,458.167 177.5,458.167 172.5,459.5C 169.482,459.665 166.482,459.498 163.5,459C 166.167,458.667 168.833,458.333 171.5,458C 168.518,457.502 165.518,457.335 162.5,457.5C 159.5,456.167 156.5,456.167 153.5,457.5C 150.482,457.665 147.482,457.498 144.5,457C 147.167,456.667 149.833,456.333 152.5,456C 149.518,455.502 146.518,455.335 143.5,455.5C 138.402,454.043 133.069,453.376 127.5,453.5C 125.735,452.539 123.735,452.205 121.5,452.5C 119.393,451.532 117.059,451.198 114.5,451.5C 109.409,449.871 104.076,448.871 98.5,448.5C 93.5655,447.007 88.5655,445.34 83.5,443.5C 82.2322,444.428 80.8989,444.595 79.5,444C 80.1667,443.667 80.8333,443.333 81.5,443C 80.255,442.209 78.9217,441.709 77.5,441.5C 75.4523,438.779 73.4523,436.779 71.5,435.5C 72.8333,434.833 72.8333,434.167 71.5,433.5C 71.3505,432.448 71.5172,431.448 72,430.5C 72.6667,429.167 73.3333,429.167 74,430.5C 76.592,427.238 79.7587,424.738 83.5,423C 93.1913,417.44 104.191,412.44 116.5,408C 122.678,405.999 129.012,405.166 135.5,405.5 Z"/></g>
<g><path style="opacity:0.012" fill="#175ab5" d="M 304.5,407.5 C 304.5,407.167 304.5,406.833 304.5,406.5C 305.167,406.5 305.833,406.5 306.5,406.5C 306.158,407.338 305.492,407.672 304.5,407.5 Z"/></g>
<g><path style="opacity:0.012" fill="#0054aa" d="M 137.5,407.5 C 138.833,408.167 138.833,408.167 137.5,407.5 Z"/></g>
<g><path style="opacity:0.024" fill="#2155aa" d="M 184.5,407.5 C 184.103,408.525 183.437,408.692 182.5,408C 183.094,407.536 183.761,407.369 184.5,407.5 Z"/></g>
<g><path style="opacity:0.012" fill="#1555aa" d="M 302.5,407.5 C 303.167,407.5 303.833,407.5 304.5,407.5C 303.833,408.833 303.167,408.833 302.5,407.5 Z"/></g>
<g><path style="opacity:0.012" fill="#1555aa" d="M 299.5,408.5 C 300.239,408.369 300.906,408.536 301.5,409C 300.563,409.692 299.897,409.525 299.5,408.5 Z"/></g>
<g><path style="opacity:0.02" fill="#2e56cb" d="M 295.5,410.5 C 295.5,410.167 295.5,409.833 295.5,409.5C 299.5,409.833 299.5,410.167 295.5,410.5 Z"/></g>
<g><path style="opacity:0.027" fill="#2251c3" d="M 291.5,411.5 C 291.5,411.167 291.5,410.833 291.5,410.5C 292.833,410.5 294.167,410.5 295.5,410.5C 294.432,411.434 293.099,411.768 291.5,411.5 Z"/></g>
<g><path style="opacity:0.012" fill="#1653ac" d="M 201.5,411.5 C 200.054,412.613 198.387,412.78 196.5,412C 198.134,411.506 199.801,411.34 201.5,411.5 Z"/></g>
<g><path style="opacity:0.02" fill="#0669b7" d="M 286.5,412.5 C 286.5,412.167 286.5,411.833 286.5,411.5C 288.167,411.5 289.833,411.5 291.5,411.5C 290.081,412.451 288.415,412.784 286.5,412.5 Z"/></g>
<g><path style="opacity:0.012" fill="#1d488d" d="M 281.5,412.5 C 283.167,412.5 284.833,412.5 286.5,412.5C 284.833,413.833 283.167,413.833 281.5,412.5 Z"/></g>
<g><path style="opacity:0.008" fill="#00007f" d="M 133.5,413.5 C 133.833,413.5 134.167,413.5 134.5,413.5C 134.315,414.17 133.981,414.17 133.5,413.5 Z"/></g>
<g><path style="opacity:0.016" fill="#1367b9" d="M 215.5,413.5 C 213.034,414.634 210.367,414.801 207.5,414C 210.146,413.503 212.813,413.336 215.5,413.5 Z"/></g>
<g><path style="opacity:0.012" fill="#0054aa" d="M 132.5,414.5 C 132.833,414.5 133.167,414.5 133.5,414.5C 133.315,415.17 132.981,415.17 132.5,414.5 Z"/></g>
<g><path style="opacity:0.012" fill="#2166b2" d="M 225.5,414.5 C 222.696,415.638 219.696,415.805 216.5,415C 219.482,414.502 222.482,414.335 225.5,414.5 Z"/></g>
<g><path style="opacity:0.027" fill="#205fa4" d="M 263.5,414.5 C 266.5,414.5 269.5,414.5 272.5,414.5C 269.5,415.833 266.5,415.833 263.5,414.5 Z"/></g>
<g><path style="opacity:0.004" fill="#0000ff" d="M 131.5,415.5 C 131.833,415.5 132.167,415.5 132.5,415.5C 132.315,416.17 131.981,416.17 131.5,415.5 Z"/></g>
<g><path style="opacity:0.016" fill="#1662b7" d="M 226.5,416.5 C 237.993,415.341 249.659,415.174 261.5,416C 249.838,416.5 238.171,416.667 226.5,416.5 Z"/></g>
<g><path style="opacity:0.02" fill="#0065cc" d="M 128.5,417.5 C 128.833,417.5 129.167,417.5 129.5,417.5C 129.315,418.17 128.981,418.17 128.5,417.5 Z"/></g>
<g><path style="opacity:0.02" fill="#006599" d="M 127.5,418.5 C 127.833,418.5 128.167,418.5 128.5,418.5C 128.315,419.17 127.981,419.17 127.5,418.5 Z"/></g>
<g><path style="opacity:0.012" fill="#0054aa" d="M 126.5,419.5 C 126.833,419.5 127.167,419.5 127.5,419.5C 127.315,420.17 126.981,420.17 126.5,419.5 Z"/></g>
<g><path style="opacity:0.008" fill="#152987" d="M 124.5,421.5 C 124.5,421.167 124.5,420.833 124.5,420.5C 125.167,420.5 125.833,420.5 126.5,420.5C 126.158,421.338 125.492,421.672 124.5,421.5 Z"/></g>
<g><path style="opacity:0.024" fill="#0054aa" d="M 123.5,421.5 C 123.833,421.5 124.167,421.5 124.5,421.5C 124.315,422.17 123.981,422.17 123.5,421.5 Z"/></g>
<g><path style="opacity:0.004" fill="#000000" d="M 394.5,421.5 C 395.525,421.897 395.692,422.563 395,423.5C 394.536,422.906 394.369,422.239 394.5,421.5 Z"/></g>
<g><path style="opacity:0.012" fill="#0054aa" d="M 122.5,422.5 C 122.833,422.5 123.167,422.5 123.5,422.5C 123.315,423.17 122.981,423.17 122.5,422.5 Z"/></g>
<g><path style="opacity:0.004" fill="#1731e2" d="M 120.5,424.5 C 120.5,424.167 120.5,423.833 120.5,423.5C 121.167,423.5 121.833,423.5 122.5,423.5C 122.158,424.338 121.492,424.672 120.5,424.5 Z"/></g>
<g><path style="opacity:0.024" fill="#007faa" d="M 119.5,424.5 C 119.833,424.5 120.167,424.5 120.5,424.5C 120.315,425.17 119.981,425.17 119.5,424.5 Z"/></g>
<g><path style="opacity:0.024" fill="#0054aa" d="M 118.5,425.5 C 118.833,425.5 119.167,425.5 119.5,425.5C 119.315,426.17 118.981,426.17 118.5,425.5 Z"/></g>
<g><path style="opacity:0.016" fill="#003e7f" d="M 391.5,427.5 C 391.833,427.5 392.167,427.5 392.5,427.5C 392.315,428.17 391.981,428.17 391.5,427.5 Z"/></g>
<g><path style="opacity:0.024" fill="#2650b3" d="M 358.5,429.5 C 357.127,429.657 355.793,429.49 354.5,429C 356.066,428.235 357.399,428.402 358.5,429.5 Z"/></g>
<g><path style="opacity:0.012" fill="#0054aa" d="M 390.5,428.5 C 390.833,428.5 391.167,428.5 391.5,428.5C 391.315,429.17 390.981,429.17 390.5,428.5 Z"/></g>
<g><path style="opacity:0.024" fill="#1f55aa" d="M 353.5,430.5 C 352.127,430.657 350.793,430.49 349.5,430C 351.066,429.235 352.399,429.402 353.5,430.5 Z"/></g>
<g><path style="opacity:0.024" fill="#0054aa" d="M 389.5,429.5 C 389.833,429.5 390.167,429.5 390.5,429.5C 390.315,430.17 389.981,430.17 389.5,429.5 Z"/></g>
<g><path style="opacity:0.02" fill="#0065cc" d="M 388.5,430.5 C 388.833,430.5 389.167,430.5 389.5,430.5C 389.315,431.17 388.981,431.17 388.5,430.5 Z"/></g>
<g><path style="opacity:0.016" fill="#003ebf" d="M 387.5,431.5 C 387.833,431.5 388.167,431.5 388.5,431.5C 388.315,432.17 387.981,432.17 387.5,431.5 Z"/></g>
<g><path style="opacity:0.004" fill="#0924e9" d="M 385.5,433.5 C 385.5,433.167 385.5,432.833 385.5,432.5C 386.167,432.5 386.833,432.5 387.5,432.5C 387.158,433.338 386.492,433.672 385.5,433.5 Z"/></g>
<g><path style="opacity:0.016" fill="#003ebf" d="M 384.5,433.5 C 384.833,433.5 385.167,433.5 385.5,433.5C 385.315,434.17 384.981,434.17 384.5,433.5 Z"/></g>
<g><path style="opacity:0.004" fill="#3744d3" d="M 71.5,433.5 C 71.5,434.167 71.5,434.833 71.5,435.5C 70.1667,434.833 70.1667,434.167 71.5,433.5 Z"/></g>
<g><path style="opacity:0.02" fill="#1e66c3" d="M 134.5,435.5 C 136.288,434.378 138.288,434.211 140.5,435C 138.527,435.495 136.527,435.662 134.5,435.5 Z"/></g>
<g><path style="opacity:0.02" fill="#336699" d="M 382.5,434.5 C 383.833,435.167 383.833,435.167 382.5,434.5 Z"/></g>
<g><path style="opacity:0.012" fill="#2556c4" d="M 141.5,436.5 C 142.946,435.387 144.613,435.22 146.5,436C 144.866,436.494 143.199,436.66 141.5,436.5 Z"/></g>
<g><path style="opacity:0.024" fill="#2a54d5" d="M 380.5,435.5 C 381.833,436.167 381.833,436.167 380.5,435.5 Z"/></g>
<g><path style="opacity:0.02" fill="#1d53b6" d="M 377.5,437.5 C 377.5,437.167 377.5,436.833 377.5,436.5C 378.5,436.5 379.5,436.5 380.5,436.5C 379.791,437.404 378.791,437.737 377.5,437.5 Z"/></g>
<g><path style="opacity:0.008" fill="#264fb0" d="M 153.5,438.5 C 155.966,437.366 158.633,437.199 161.5,438C 158.854,438.497 156.187,438.664 153.5,438.5 Z"/></g>
<g><path style="opacity:0.02" fill="#006ea5" d="M 375.5,438.5 C 375.5,438.167 375.5,437.833 375.5,437.5C 376.167,437.5 376.833,437.5 377.5,437.5C 377.158,438.338 376.492,438.672 375.5,438.5 Z"/></g>
<g><path style="opacity:0.027" fill="#275fac" d="M 275.5,439.5 C 270.821,439.666 266.155,439.499 261.5,439C 266.352,438.185 271.019,438.352 275.5,439.5 Z"/></g>
<g><path style="opacity:0.02" fill="#0668b5" d="M 372.5,439.5 C 372.5,439.167 372.5,438.833 372.5,438.5C 373.5,438.5 374.5,438.5 375.5,438.5C 374.791,439.404 373.791,439.737 372.5,439.5 Z"/></g>
<g><path style="opacity:0.016" fill="#1d76c3" d="M 370.5,439.5 C 371.167,439.5 371.833,439.5 372.5,439.5C 371.833,440.833 371.167,440.833 370.5,439.5 Z"/></g>
<g><path style="opacity:0.016" fill="#003ebf" d="M 77.5,441.5 C 76.8333,442.167 76.8333,442.167 77.5,441.5 Z"/></g>
<g><path style="opacity:0.02" fill="#1a6698" d="M 364.5,441.5 C 365.167,441.5 365.833,441.5 366.5,441.5C 365.833,442.833 365.167,442.833 364.5,441.5 Z"/></g>
<g><path style="opacity:0.024" fill="#2c64a7" d="M 360.5,443.5 C 360.5,443.167 360.5,442.833 360.5,442.5C 364.5,442.833 364.5,443.167 360.5,443.5 Z"/></g>
<g><path style="opacity:0.016" fill="#2261a8" d="M 356.5,444.5 C 356.5,444.167 356.5,443.833 356.5,443.5C 357.833,443.5 359.167,443.5 360.5,443.5C 359.432,444.434 358.099,444.768 356.5,444.5 Z"/></g>
<g><path style="opacity:0.024" fill="#25429f" d="M 353.5,445.5 C 353.5,445.167 353.5,444.833 353.5,444.5C 354.5,444.5 355.5,444.5 356.5,444.5C 355.791,445.404 354.791,445.737 353.5,445.5 Z"/></g>
<g><path style="opacity:0.012" fill="#164589" d="M 348.5,446.5 C 348.5,446.167 348.5,445.833 348.5,445.5C 350.167,445.5 351.833,445.5 353.5,445.5C 352.081,446.451 350.415,446.784 348.5,446.5 Z"/></g>
<g><path style="opacity:0.004" fill="#220eb8" d="M 402.5,446.5 C 403.251,445.427 404.251,445.26 405.5,446C 404.552,446.483 403.552,446.649 402.5,446.5 Z"/></g>
<g><path style="opacity:0.024" fill="#265fd4" d="M 345.5,446.5 C 346.5,446.5 347.5,446.5 348.5,446.5C 347.5,447.833 346.5,447.833 345.5,446.5 Z"/></g>
<g><path style="opacity:0.02" fill="#2562c8" d="M 401.5,447.5 C 398.813,447.664 396.146,447.497 393.5,447C 396.367,446.199 399.034,446.366 401.5,447.5 Z"/></g>
<g><path style="opacity:0.024" fill="#2169c4" d="M 406.5,447.5 C 407.251,446.427 408.251,446.26 409.5,447C 408.552,447.483 407.552,447.649 406.5,447.5 Z"/></g>
<g><path style="opacity:0.012" fill="#184f91" d="M 98.5,448.5 C 97.3991,449.598 96.0657,449.765 94.5,449C 95.7932,448.51 97.1266,448.343 98.5,448.5 Z"/></g>
<g><path style="opacity:0.012" fill="#205dac" d="M 335.5,448.5 C 336.833,448.5 338.167,448.5 339.5,448.5C 338.167,449.833 336.833,449.833 335.5,448.5 Z"/></g>
<g><path style="opacity:0.008" fill="#192e9b" d="M 330.5,449.5 C 331.873,449.343 333.207,449.51 334.5,450C 332.934,450.765 331.601,450.598 330.5,449.5 Z"/></g>
<g><path style="opacity:0.986" fill="#2d6bb8" d="M 401.5,447.5 C 403.167,447.5 404.833,447.5 406.5,447.5C 407.568,448.434 408.901,448.768 410.5,448.5C 410.5,449.833 410.5,451.167 410.5,452.5C 409.833,452.5 409.5,452.833 409.5,453.5C 408.833,453.5 408.5,453.833 408.5,454.5C 407.833,454.5 407.5,454.833 407.5,455.5C 406.508,455.328 405.842,455.662 405.5,456.5C 404.833,456.5 404.5,456.833 404.5,457.5C 403.508,457.328 402.842,457.662 402.5,458.5C 401.508,458.328 400.842,458.662 400.5,459.5C 399.508,459.328 398.842,459.662 398.5,460.5C 397.508,460.328 396.842,460.662 396.5,461.5C 395.508,461.328 394.842,461.662 394.5,462.5C 393.209,462.263 392.209,462.596 391.5,463.5C 390.508,463.328 389.842,463.662 389.5,464.5C 388.209,464.263 387.209,464.596 386.5,465.5C 385.209,465.263 384.209,465.596 383.5,466.5C 382.209,466.263 381.209,466.596 380.5,467.5C 378.901,467.232 377.568,467.566 376.5,468.5C 374.901,468.232 373.568,468.566 372.5,469.5C 365.833,469.833 365.833,470.167 372.5,470.5C 370.735,471.461 368.735,471.795 366.5,471.5C 365.167,470.167 363.833,470.167 362.5,471.5C 359.941,471.198 357.607,471.532 355.5,472.5C 350.269,472.444 345.269,473.111 340.5,474.5C 336.958,474.187 333.625,474.521 330.5,475.5C 327.813,475.336 325.146,475.503 322.5,476C 324.833,476.333 327.167,476.667 329.5,477C 326.854,477.497 324.187,477.664 321.5,477.5C 317.5,476.167 313.5,476.167 309.5,477.5C 305.629,477.185 301.962,477.518 298.5,478.5C 293.156,478.334 287.823,478.501 282.5,479C 287.5,479.333 292.5,479.667 297.5,480C 294.833,480.167 292.167,480.333 289.5,480.5C 281.174,479.647 272.841,479.481 264.5,480C 269.833,480.333 275.167,480.667 280.5,481C 250.178,480.653 219.844,480.487 189.5,480.5C 186.375,479.521 183.042,479.187 179.5,479.5C 177.393,478.532 175.059,478.198 172.5,478.5C 170.723,477.4 168.723,476.566 166.5,476C 165.167,475 165.167,474 166.5,473C 173.294,470.7 180.294,469.367 187.5,469C 185.167,468.667 182.833,468.333 180.5,468C 192.47,466.331 204.47,466.164 216.5,467.5C 220.5,467.333 224.5,467.167 228.5,467C 220.833,466.667 213.167,466.333 205.5,466C 220.498,465.75 235.498,465.916 250.5,466.5C 257.5,466.333 264.5,466.167 271.5,466C 258.5,465.667 245.5,465.333 232.5,465C 251.342,464.777 270.008,464.61 288.5,464.5C 293.695,464.821 298.695,464.487 303.5,463.5C 307.371,463.815 311.038,463.482 314.5,462.5C 318.042,462.813 321.375,462.479 324.5,461.5C 329.887,461.595 335.22,461.095 340.5,460C 338.5,459.667 336.5,459.333 334.5,459C 338.016,458.501 341.516,458.667 345,459.5C 348.062,459.259 350.895,458.592 353.5,457.5C 358.477,457.419 363.143,456.419 367.5,454.5C 369.927,454.477 372.26,453.977 374.5,453C 373.5,452.667 372.5,452.333 371.5,452C 373.527,451.502 375.527,451.669 377.5,452.5C 379.197,452.101 380.863,451.601 382.5,451C 381.5,450.667 380.5,450.333 379.5,450C 386.996,450.119 394.329,449.285 401.5,447.5 Z"/></g>
<g><path style="opacity:0.012" fill="#0054aa" d="M 411.5,452.5 C 411.351,451.448 411.517,450.448 412,449.5C 412.74,450.749 412.573,451.749 411.5,452.5 Z"/></g>
<g><path style="opacity:0.02" fill="#2562b7" d="M 324.5,450.5 C 326.199,450.34 327.866,450.506 329.5,451C 327.613,451.78 325.946,451.613 324.5,450.5 Z"/></g>
<g><path style="opacity:0.031" fill="#255697" d="M 114.5,451.5 C 113.054,452.613 111.387,452.78 109.5,452C 111.134,451.506 112.801,451.34 114.5,451.5 Z"/></g>
<g><path style="opacity:0.016" fill="#1068c0" d="M 121.5,452.5 C 119.712,453.622 117.712,453.789 115.5,453C 117.473,452.505 119.473,452.338 121.5,452.5 Z"/></g>
<g><path style="opacity:0.012" fill="#0054aa" d="M 410.5,452.5 C 410.833,452.5 411.167,452.5 411.5,452.5C 411.315,453.17 410.981,453.17 410.5,452.5 Z"/></g>
<g><path style="opacity:0.027" fill="#1c75b4" d="M 127.5,453.5 C 126.054,454.613 124.387,454.78 122.5,454C 124.134,453.506 125.801,453.34 127.5,453.5 Z"/></g>
<g><path style="opacity:0.016" fill="#187fb4" d="M 367.5,454.5 C 366.448,454.649 365.448,454.483 364.5,454C 365.749,453.26 366.749,453.427 367.5,454.5 Z"/></g>
<g><path style="opacity:0.008" fill="#007eff" d="M 409.5,453.5 C 409.833,453.5 410.167,453.5 410.5,453.5C 410.315,454.17 409.981,454.17 409.5,453.5 Z"/></g>
<g><path style="opacity:0.012" fill="#2159c5" d="M 297.5,455.5 C 297.5,455.167 297.5,454.833 297.5,454.5C 300.167,454.5 302.833,454.5 305.5,454.5C 303.052,455.473 300.385,455.806 297.5,455.5 Z"/></g>
<g><path style="opacity:0.016" fill="#003ebf" d="M 408.5,454.5 C 408.833,454.5 409.167,454.5 409.5,454.5C 409.315,455.17 408.981,455.17 408.5,454.5 Z"/></g>
<g><path style="opacity:0.024" fill="#2668ae" d="M 143.5,455.5 C 141.372,456.629 139.039,456.796 136.5,456C 138.81,455.503 141.143,455.337 143.5,455.5 Z"/></g>
<g><path style="opacity:0.027" fill="#256bbd" d="M 290.5,455.5 C 292.833,455.5 295.167,455.5 297.5,455.5C 295.167,456.833 292.833,456.833 290.5,455.5 Z"/></g>
<g><path style="opacity:0.016" fill="#003ebf" d="M 407.5,455.5 C 407.833,455.5 408.167,455.5 408.5,455.5C 408.315,456.17 407.981,456.17 407.5,455.5 Z"/></g>
<g><path style="opacity:0.016" fill="#306cb6" d="M 353.5,457.5 C 352.127,457.657 350.793,457.49 349.5,457C 351.066,456.235 352.399,456.402 353.5,457.5 Z"/></g>
<g><path style="opacity:0.004" fill="#0924e9" d="M 405.5,457.5 C 405.5,457.167 405.5,456.833 405.5,456.5C 406.167,456.5 406.833,456.5 407.5,456.5C 407.158,457.338 406.492,457.672 405.5,457.5 Z"/></g>
<g><path style="opacity:0.024" fill="#2953a3" d="M 153.5,457.5 C 156.5,457.5 159.5,457.5 162.5,457.5C 159.5,458.833 156.5,458.833 153.5,457.5 Z"/></g>
<g><path style="opacity:0.02" fill="#2a5db0" d="M 270.5,457.5 C 273.833,457.5 277.167,457.5 280.5,457.5C 277.167,458.833 273.833,458.833 270.5,457.5 Z"/></g>
<g><path style="opacity:0.02" fill="#006599" d="M 404.5,457.5 C 404.833,457.5 405.167,457.5 405.5,457.5C 405.315,458.17 404.981,458.17 404.5,457.5 Z"/></g>
<g><path style="opacity:0.024" fill="#2a54aa" d="M 402.5,458.5 C 403.833,459.167 403.833,459.167 402.5,458.5 Z"/></g>
<g><path style="opacity:0.016" fill="#2064a8" d="M 172.5,459.5 C 177.5,459.5 182.5,459.5 187.5,459.5C 182.5,460.833 177.5,460.833 172.5,459.5 Z"/></g>
<g><path style="opacity:0.008" fill="#097687" d="M 400.5,460.5 C 400.5,460.167 400.5,459.833 400.5,459.5C 401.167,459.5 401.833,459.5 402.5,459.5C 402.158,460.338 401.492,460.672 400.5,460.5 Z"/></g>
<g><path style="opacity:0.027" fill="#2464b2" d="M 189.5,461.5 C 204.995,460.339 220.661,460.172 236.5,461C 220.837,461.5 205.17,461.667 189.5,461.5 Z"/></g>
<g><path style="opacity:0.008" fill="#2b68b2" d="M 324.5,461.5 C 321.813,461.664 319.146,461.497 316.5,461C 319.367,460.199 322.034,460.366 324.5,461.5 Z"/></g>
<g><path style="opacity:0.004" fill="#2630e2" d="M 398.5,461.5 C 398.5,461.167 398.5,460.833 398.5,460.5C 399.167,460.5 399.833,460.5 400.5,460.5C 400.158,461.338 399.492,461.672 398.5,461.5 Z"/></g>
<g><path style="opacity:0.024" fill="#275fcb" d="M 314.5,462.5 C 311.15,462.665 307.817,462.498 304.5,462C 308.027,461.192 311.36,461.359 314.5,462.5 Z"/></g>
<g><path style="opacity:0.008" fill="#097687" d="M 396.5,461.5 C 397.167,461.5 397.833,461.5 398.5,461.5C 397.833,462.833 397.167,462.833 396.5,461.5 Z"/></g>
<g><path style="opacity:0.012" fill="#214faa" d="M 303.5,463.5 C 298.821,463.666 294.155,463.499 289.5,463C 294.352,462.185 299.019,462.352 303.5,463.5 Z"/></g>
<g><path style="opacity:0.024" fill="#2a54aa" d="M 394.5,462.5 C 395.833,463.167 395.833,463.167 394.5,462.5 Z"/></g>
<g><path style="opacity:0.031" fill="#265db7" d="M 288.5,464.5 C 283.489,464.666 278.489,464.499 273.5,464C 278.684,463.184 283.684,463.35 288.5,464.5 Z"/></g>
<g><path style="opacity:0.016" fill="#1b4cc3" d="M 391.5,464.5 C 391.5,464.167 391.5,463.833 391.5,463.5C 394.167,463.833 394.167,464.167 391.5,464.5 Z"/></g>
<g><path style="opacity:0.016" fill="#234cb2" d="M 389.5,465.5 C 389.5,465.167 389.5,464.833 389.5,464.5C 390.167,464.5 390.833,464.5 391.5,464.5C 391.158,465.338 390.492,465.672 389.5,465.5 Z"/></g>
<g><path style="opacity:0.02" fill="#154874" d="M 386.5,466.5 C 386.5,466.167 386.5,465.833 386.5,465.5C 387.5,465.5 388.5,465.5 389.5,465.5C 388.791,466.404 387.791,466.737 386.5,466.5 Z"/></g>
<g><path style="opacity:0.016" fill="#256acf" d="M 383.5,467.5 C 383.5,467.167 383.5,466.833 383.5,466.5C 384.5,466.5 385.5,466.5 386.5,466.5C 385.791,467.404 384.791,467.737 383.5,467.5 Z"/></g>
<g><path style="opacity:0.027" fill="#1760b0" d="M 380.5,468.5 C 380.5,468.167 380.5,467.833 380.5,467.5C 381.5,467.5 382.5,467.5 383.5,467.5C 382.791,468.404 381.791,468.737 380.5,468.5 Z"/></g>
<g><path style="opacity:0.012" fill="#0959b3" d="M 376.5,469.5 C 376.5,469.167 376.5,468.833 376.5,468.5C 377.833,468.5 379.167,468.5 380.5,468.5C 379.432,469.434 378.099,469.768 376.5,469.5 Z"/></g>
<g><path style="opacity:0.027" fill="#2359c6" d="M 372.5,470.5 C 372.5,470.167 372.5,469.833 372.5,469.5C 373.833,469.5 375.167,469.5 376.5,469.5C 375.432,470.434 374.099,470.768 372.5,470.5 Z"/></g>
<g><path style="opacity:0.008" fill="#2075db" d="M 362.5,471.5 C 363.833,471.5 365.167,471.5 366.5,471.5C 365.167,472.833 363.833,472.833 362.5,471.5 Z"/></g>
<g><path style="opacity:0.012" fill="#2559b7" d="M 355.5,472.5 C 357.527,472.338 359.527,472.505 361.5,473C 359.288,473.789 357.288,473.622 355.5,472.5 Z"/></g>
<g><path style="opacity:0.024" fill="#275aab" d="M 348.5,474.5 C 350.288,473.378 352.288,473.211 354.5,474C 352.527,474.495 350.527,474.662 348.5,474.5 Z"/></g>
<g><path style="opacity:0.012" fill="#005ab5" d="M 163.5,473.5 C 164.525,473.897 164.692,474.563 164,475.5C 163.536,474.906 163.369,474.239 163.5,473.5 Z"/></g>
<g><path style="opacity:0.027" fill="#2064a7" d="M 340.5,474.5 C 342.527,474.338 344.527,474.505 346.5,475C 344.288,475.789 342.288,475.622 340.5,474.5 Z"/></g>
<g><path style="opacity:0.02" fill="#245eaa" d="M 330.5,475.5 C 333.518,475.335 336.518,475.502 339.5,476C 336.304,476.805 333.304,476.638 330.5,475.5 Z"/></g>
<g><path style="opacity:0.016" fill="#1f5bb7" d="M 309.5,477.5 C 313.5,477.5 317.5,477.5 321.5,477.5C 317.5,478.833 313.5,478.833 309.5,477.5 Z"/></g>
<g><path style="opacity:0.024" fill="#2441b4" d="M 172.5,478.5 C 171.749,479.573 170.749,479.74 169.5,479C 170.448,478.517 171.448,478.351 172.5,478.5 Z"/></g>
<g><path style="opacity:0.027" fill="#245bb2" d="M 298.5,478.5 C 301.85,478.335 305.183,478.502 308.5,479C 304.973,479.808 301.64,479.641 298.5,478.5 Z"/></g>
<g><path style="opacity:0.024" fill="#2a55b5" d="M 179.5,479.5 C 177.712,480.622 175.712,480.789 173.5,480C 175.473,479.505 177.473,479.338 179.5,479.5 Z"/></g>
<g><path style="opacity:0.027" fill="#264c9c" d="M 189.5,480.5 C 186.696,481.638 183.696,481.805 180.5,481C 183.482,480.502 186.482,480.335 189.5,480.5 Z"/></g>
<g><path style="opacity:0.024" fill="#2760b4" d="M 191.5,482.5 C 213.996,481.337 236.663,481.17 259.5,482C 236.836,482.5 214.169,482.667 191.5,482.5 Z"/></g>
</svg>
