<?xml version="1.0" encoding="UTF-8"?>
<svg xmlns="http://www.w3.org/2000/svg" xmlns:xlink="http://www.w3.org/1999/xlink" width="150px" height="150px" viewBox="0 0 150 150" version="1.1">
<defs>
<filter id="alpha" filterUnits="objectBoundingBox" x="0%" y="0%" width="100%" height="100%">
  <feColorMatrix type="matrix" in="SourceGraphic" values="0 0 0 0 1 0 0 0 0 1 0 0 0 0 1 0 0 0 1 0"/>
</filter>
<mask id="mask0">
  <g filter="url(#alpha)">
<rect x="0" y="0" width="150" height="150" style="fill:rgb(0%,0%,0%);fill-opacity:0.94902;stroke:none;"/>
  </g>
</mask>
<clipPath id="clip1">
  <rect x="0" y="0" width="150" height="150"/>
</clipPath>
<g id="surface5" clip-path="url(#clip1)">
<path style=" stroke:none;fill-rule:evenodd;fill:rgb(1.568627%,2.745098%,2.745098%);fill-opacity:1;" d="M 65.5 6.167969 C 67.722656 6.167969 69.945312 6.167969 72.167969 6.167969 C 72.167969 12.609375 72.167969 19.054688 72.167969 25.5 C 67.054688 25.5 61.945312 25.5 56.832031 25.5 C 56.832031 23.277344 56.832031 21.054688 56.832031 18.832031 C 59.722656 18.832031 62.609375 18.832031 65.5 18.832031 C 65.5 14.609375 65.5 10.390625 65.5 6.167969 Z M 65.5 6.167969 "/>
</g>
<mask id="mask1">
  <g filter="url(#alpha)">
<rect x="0" y="0" width="150" height="150" style="fill:rgb(0%,0%,0%);fill-opacity:0.945098;stroke:none;"/>
  </g>
</mask>
<clipPath id="clip2">
  <rect x="0" y="0" width="150" height="150"/>
</clipPath>
<g id="surface8" clip-path="url(#clip2)">
<path style=" stroke:none;fill-rule:evenodd;fill:rgb(7.058824%,7.45098%,7.058824%);fill-opacity:1;" d="M 75.167969 6.167969 C 80.945312 6.167969 86.722656 6.167969 92.5 6.167969 C 92.5 8.054688 92.5 9.945312 92.5 11.832031 C 90.046875 11.722656 87.601562 11.835938 85.167969 12.167969 C 87.726562 14.78125 90.226562 17.449219 92.667969 20.167969 C 92.832031 21.941406 92.886719 23.71875 92.832031 25.5 C 86.945312 25.5 81.054688 25.5 75.167969 25.5 C 75.167969 23.609375 75.167969 21.722656 75.167969 19.832031 C 77.835938 19.890625 80.503906 19.832031 83.167969 19.667969 C 80.554688 16.832031 77.945312 14 75.332031 11.167969 C 75.167969 9.503906 75.113281 7.835938 75.167969 6.167969 Z M 75.167969 6.167969 "/>
</g>
<mask id="mask2">
  <g filter="url(#alpha)">
<rect x="0" y="0" width="150" height="150" style="fill:rgb(0%,0%,0%);fill-opacity:0.992157;stroke:none;"/>
  </g>
</mask>
<clipPath id="clip3">
  <rect x="0" y="0" width="150" height="150"/>
</clipPath>
<g id="surface11" clip-path="url(#clip3)">
<path style=" stroke:none;fill-rule:evenodd;fill:rgb(89.803922%,63.529412%,15.686275%);fill-opacity:1;" d="M 25.167969 33.832031 C 58.277344 33.832031 91.390625 33.832031 124.5 33.832031 C 121.632812 67.632812 118.578125 101.410156 115.332031 135.167969 C 101.871094 139.042969 88.371094 142.820312 74.832031 146.5 C 61.285156 142.851562 47.785156 139.070312 34.332031 135.167969 C 31.058594 101.410156 28 67.632812 25.167969 33.832031 Z M 25.167969 33.832031 "/>
</g>
</defs>
<g id="surface1">
<use xlink:href="#surface5" mask="url(#mask0)"/>
<use xlink:href="#surface8" mask="url(#mask1)"/>
<use xlink:href="#surface11" mask="url(#mask2)"/>
<path style=" stroke:none;fill-rule:evenodd;fill:rgb(91.764706%,69.019608%,15.294118%);fill-opacity:1;" d="M 74.832031 42.167969 C 88.335938 41.722656 101.890625 41.722656 115.5 42.167969 C 115.457031 42.367188 115.347656 42.480469 115.167969 42.5 C 101.777344 42.167969 88.335938 42.054688 74.832031 42.167969 Z M 74.832031 42.167969 "/>
<path style=" stroke:none;fill-rule:evenodd;fill:rgb(94.509804%,74.901961%,15.294118%);fill-opacity:1;" d="M 74.832031 42.167969 C 88.335938 42.054688 101.777344 42.167969 115.167969 42.5 C 112.582031 71.15625 110.136719 99.824219 107.832031 128.5 C 96.8125 131.449219 85.8125 134.449219 74.832031 137.5 C 74.832031 133.277344 74.832031 129.054688 74.832031 124.832031 C 75.054688 124.832031 75.167969 124.722656 75.167969 124.5 C 83.488281 122.226562 91.820312 120.003906 100.167969 117.832031 C 101.277344 105.054688 102.390625 92.277344 103.5 79.5 C 93.945312 79.5 84.390625 79.5 74.832031 79.5 C 74.832031 72.945312 74.832031 66.390625 74.832031 59.832031 C 79.847656 59.960938 84.847656 60.292969 89.832031 60.832031 C 90.257812 64.707031 90.589844 68.597656 90.832031 72.5 C 90.832031 72.832031 90.832031 73.167969 90.832031 73.5 C 95.113281 73.609375 99.335938 73.5 103.5 73.167969 C 102.824219 64.378906 102.042969 55.601562 101.167969 46.832031 C 92.390625 46.832031 83.609375 46.832031 74.832031 46.832031 C 67.167969 46.832031 59.5 46.832031 51.832031 46.832031 C 59.441406 46.5 67.109375 46.390625 74.832031 46.5 C 74.832031 45.054688 74.832031 43.609375 74.832031 42.167969 Z M 74.832031 42.167969 "/>
<path style=" stroke:none;fill-rule:evenodd;fill:rgb(92.54902%,92.54902%,92.941176%);fill-opacity:1;" d="M 51.832031 46.832031 C 59.5 46.832031 67.167969 46.832031 74.832031 46.832031 C 74.832031 51.167969 74.832031 55.5 74.832031 59.832031 C 70.828125 59.808594 66.828125 59.917969 62.832031 60.167969 C 62.398438 66.621094 61.84375 73.066406 61.167969 79.5 C 65.609375 79.5 70.054688 79.5 74.5 79.5 C 74.5 83.609375 74.5 87.722656 74.5 91.832031 C 65.5 91.832031 56.5 91.832031 47.5 91.832031 C 48.808594 76.773438 50.253906 61.773438 51.832031 46.832031 Z M 51.832031 46.832031 "/>
<path style=" stroke:none;fill-rule:evenodd;fill:rgb(99.607843%,99.607843%,99.215686%);fill-opacity:1;" d="M 74.832031 46.832031 C 83.609375 46.832031 92.390625 46.832031 101.167969 46.832031 C 102.042969 55.601562 102.824219 64.378906 103.5 73.167969 C 99.195312 73.371094 94.972656 73.148438 90.832031 72.5 C 90.589844 68.597656 90.257812 64.707031 89.832031 60.832031 C 84.847656 60.292969 79.847656 59.960938 74.832031 59.832031 C 74.832031 55.5 74.832031 51.167969 74.832031 46.832031 Z M 74.832031 46.832031 "/>
<path style=" stroke:none;fill-rule:evenodd;fill:rgb(89.803922%,63.529412%,16.078431%);fill-opacity:1;" d="M 74.832031 59.832031 C 74.832031 66.390625 74.832031 72.945312 74.832031 79.5 C 74.722656 79.5 74.609375 79.5 74.5 79.5 C 70.054688 79.5 65.609375 79.5 61.167969 79.5 C 61.84375 73.066406 62.398438 66.621094 62.832031 60.167969 C 66.828125 59.917969 70.828125 59.808594 74.832031 59.832031 Z M 74.832031 59.832031 "/>
<path style=" stroke:none;fill-rule:evenodd;fill:rgb(98.431373%,92.941176%,76.862745%);fill-opacity:1;" d="M 90.832031 72.5 C 94.972656 73.148438 99.195312 73.371094 103.5 73.167969 C 99.335938 73.5 95.113281 73.609375 90.832031 73.5 C 90.832031 73.167969 90.832031 72.832031 90.832031 72.5 Z M 90.832031 72.5 "/>
<path style=" stroke:none;fill-rule:evenodd;fill:rgb(99.607843%,99.607843%,99.215686%);fill-opacity:1;" d="M 74.5 79.5 C 74.609375 79.5 74.722656 79.5 74.832031 79.5 C 84.390625 79.5 93.945312 79.5 103.5 79.5 C 102.390625 92.277344 101.277344 105.054688 100.167969 117.832031 C 91.820312 120.003906 83.488281 122.226562 75.167969 124.5 C 74.507812 120.402344 74.285156 116.179688 74.5 111.832031 C 74.832031 111.890625 75.050781 111.78125 75.167969 111.5 C 79.636719 110.453125 84.078125 109.34375 88.5 108.167969 C 88.925781 102.832031 89.367188 97.5 89.832031 92.167969 C 84.78125 91.835938 79.667969 91.722656 74.5 91.832031 C 74.5 87.722656 74.5 83.609375 74.5 79.5 Z M 74.5 79.5 "/>
<path style=" stroke:none;fill-rule:evenodd;fill:rgb(94.509804%,74.901961%,14.901961%);fill-opacity:1;" d="M 89.832031 92.167969 C 89.367188 97.5 88.925781 102.832031 88.5 108.167969 C 84.078125 109.34375 79.636719 110.453125 75.167969 111.5 C 74.835938 105.113281 74.722656 98.667969 74.832031 92.167969 C 79.832031 92.167969 84.832031 92.167969 89.832031 92.167969 Z M 89.832031 92.167969 "/>
<path style=" stroke:none;fill-rule:evenodd;fill:rgb(92.54902%,92.54902%,92.54902%);fill-opacity:1;" d="M 74.5 111.832031 C 74.285156 116.179688 74.507812 120.402344 75.167969 124.5 C 75.167969 124.722656 75.054688 124.832031 74.832031 124.832031 C 66.285156 122.445312 57.730469 120.113281 49.167969 117.832031 C 48.671875 111.273438 48.117188 104.714844 47.5 98.167969 C 51.722656 98.167969 55.945312 98.167969 60.167969 98.167969 C 60.289062 101.507812 60.511719 104.839844 60.832031 108.167969 C 65.414062 109.324219 69.96875 110.546875 74.5 111.832031 Z M 74.5 111.832031 "/>
</g>
</svg>
